/* XPM */
static char *_92d6f91d2254ef2bf529a506bc4ac24KcJaenEF9KjiV6LQ[] = {
/* columns rows colors chars-per-pixel */
"50 50 233 2 ",
"   c #171B0C",
".  c #0D1A15",
"X  c #141B15",
"o  c #1B1B15",
"O  c #161A1C",
"+  c #1B1C1C",
"@  c #171616",
"#  c #0C1A0C",
"$  c #221C0A",
"%  c #20150F",
"&  c #241C15",
"*  c #251D1C",
"=  c #271915",
"-  c #381B19",
";  c #19250E",
":  c #0C2316",
">  c #0D2913",
",  c #082717",
"<  c #122A1C",
"1  c #182619",
"2  c #0D321D",
"3  c #103112",
"4  c #25241B",
"5  c #2A2819",
"6  c #372919",
"7  c #22361C",
"8  c #302912",
"9  c #1C1C22",
"0  c #181721",
"q  c #221D23",
"w  c #221F2A",
"e  c #0C2E21",
"r  c #1B2322",
"t  c #192C25",
"y  c #0B3723",
"u  c #143B25",
"i  c #193628",
"p  c #1A2A34",
"a  c #222424",
"s  c #24252B",
"d  c #29252B",
"f  c #252A2C",
"g  c #2B2C2D",
"h  c #2A2825",
"j  c #382A27",
"k  c #2A342A",
"l  c #36372B",
"z  c #252B32",
"x  c #2A2C33",
"c  c #2D2C39",
"v  c #292732",
"b  c #322D35",
"n  c #352E39",
"m  c #2D3235",
"M  c #2E333B",
"N  c #2B3B34",
"B  c #323335",
"V  c #33333B",
"C  c #333B3D",
"Z  c #3A3938",
"A  c #44371C",
"S  c #402F1D",
"D  c #452A26",
"F  c #473629",
"G  c #463D36",
"H  c #553E2E",
"J  c #004514",
"K  c #004A14",
"L  c #014D1B",
"P  c #00541C",
"I  c #005A1E",
"U  c #2F421B",
"Y  c #00631F",
"T  c #064724",
"R  c #184729",
"E  c #025522",
"W  c #015C23",
"Q  c #0A5B26",
"!  c #055E29",
"~  c #0C5C2B",
"^  c #0B5529",
"/  c #184A34",
"(  c #0D5832",
")  c #175735",
"_  c #264738",
"`  c #374B3B",
"'  c #27573A",
"]  c #314E2D",
"[  c #016226",
"{  c #046A27",
"}  c #03642A",
"|  c #0A642C",
" . c #046A2D",
".. c #0B6A2E",
"X. c #12652E",
"o. c #03712E",
"O. c #056631",
"+. c #0B6531",
"@. c #056D32",
"#. c #0B6C33",
"$. c #0D6D39",
"%. c #0F6238",
"&. c #136533",
"*. c #126D35",
"=. c #1A643B",
"-. c #146C3B",
";. c #1D6B3D",
":. c #166536",
">. c #057233",
",. c #0B7334",
"<. c #0D7935",
"1. c #0C743A",
"2. c #0C7B3A",
"3. c #057839",
"4. c #127235",
"5. c #13743A",
"6. c #1A733D",
"7. c #137A3C",
"8. c #18783B",
"9. c #226C3C",
"0. c #2B6C3C",
"q. c #53432A",
"w. c #484639",
"e. c #584939",
"r. c #544F37",
"t. c #6D563B",
"y. c #606233",
"u. c #353A42",
"i. c #3A3D46",
"p. c #3D3C4A",
"a. c #383744",
"s. c #192943",
"d. c #433E49",
"f. c #3D424C",
"g. c #394646",
"h. c #355A46",
"j. c #31524A",
"k. c #1A6C41",
"l. c #0E7D42",
"z. c #1C7443",
"x. c #147C41",
"c. c #1C7B43",
"v. c #167744",
"b. c #276845",
"n. c #3A664A",
"m. c #267649",
"M. c #35754B",
"N. c #387756",
"B. c #316F53",
"V. c #43454D",
"C. c #444A4B",
"Z. c #48464A",
"A. c #465547",
"S. c #454452",
"D. c #4A4655",
"F. c #454B54",
"G. c #4A4A55",
"H. c #464A59",
"J. c #4B4B5A",
"K. c #4B4758",
"L. c #514F5A",
"P. c #4B525B",
"I. c #485656",
"U. c #56575A",
"Y. c #57534C",
"T. c #675848",
"R. c #466656",
"E. c #47775A",
"W. c #4D7056",
"Q. c #796747",
"!. c #78675A",
"~. c #7E7559",
"^. c #6A664E",
"/. c #495263",
"(. c #5B5C65",
"). c #575865",
"_. c #414A67",
"`. c #625D65",
"'. c #5B6768",
"]. c #55726C",
"[. c #626767",
"{. c #786E68",
"}. c #7A7467",
"|. c #76787A",
" X c #677073",
".X c #847452",
"XX c #87756C",
"oX c #13813D",
"OX c #0E833D",
"+X c #118243",
"@X c #1B8046",
"#X c #0C8041",
"$X c #338657",
"%X c #3A8560",
"&X c #478965",
"*X c #47855C",
"=X c #938259",
"-X c #87826B",
";X c #928769",
":X c #998F79",
">X c #A69674",
",X c #B79C78",
"<X c #A08F75",
"1X c #BDA87E",
"2X c #ADA47D",
"3X c #6F7B88",
"4X c #747B87",
"5X c #5F708A",
"6X c #778694",
"7X c #8F918F",
"8X c #AE9C88",
"9X c #B6A486",
"0X c #B8AC91",
"qX c #999DA5",
"wX c #91A1A8",
"eX c #A1A2A1",
"rX c #AFB0B2",
"tX c #C4AF8B",
"yX c #C5B697",
"uX c #D4BD96",
"iX c #C7B28E",
"pX c #C1BCB6",
"aX c #D9C59D",
"sX c #E4C79D",
"dX c #ECD19C",
"fX c #DACBA8",
"gX c #E7CCA7",
"hX c #EBD2A7",
"jX c #F9DAA9",
"kX c #F9DCB4",
"lX c #E6D1B4",
"zX c #BFBFC1",
"xX c #CFD1D2",
/* pixels */
"@.3.>.l.3. .3.2.@. .5.>.2.<.@.>. .7.<. .@.1.1.#.#.1.1.@.x.x.{ ,.<.<.#...5.,.6.5.1.>.,.4.3.>.>.l.3.#X",
"@.1.7.3.3.>.3.>.#.} #. .{  .4.[  .$.*.-.6.&.^ T ( ( E :.-.| 6.5.<.o. . .,.#.+.#.{ #.4.#. .@.@.3.2.2.",
"| } ..W #.1.$.W Q X.Q P W W } ! +.^ ) ' y > < : i _ I.R./ T ) k.$.{ } W } W J L W W P P P W [ } } } ",
"4.#...W *.5.#.P X.&.&.| E ~ ;.) ' y u j.C.G.L.Z.b a x C.].R.y ) k.-.+.$.$.} L P W ! P P W  . . .I W ",
",.,.#.4.5. .#.,.#.,.7.#.+.=.) 2 N U.'.U.U.(.(.).(. XP.M f.'.I.i / ( ( k.v.$.O.$.W #.{ [ [ >.4.,.#.4.",
" . .[ 4.,.[  .7.>.@.O.! ( ) u N C V z z a.f.S.J./.D.H./.S.G.(.I.y R / b.k.%.-.-.} 4.4.{ .. .#. . .,.",
"@. .} ..,.{  .>.#.! ~ ) y , # + 9 9 V f.f.S.J.J.S.J.J.F.J.J.D.).C N i e 2 y R R :.X.! | *.[ Q K { >.",
",.$.5...,.>.>.,.-.m.R 2 : X + b d.Z.G.G.G.J.G.D.J.G.J.J.S.G.J.G.U.L.[.'.'.R.` 2 n.9.Q P #.#.6.! #.,.",
"1.} #.| }  .1.+.:.n.< . O d d.Z.G.G.Z.G.G.F.F.F.F.F.G.G.G.G.G.G.G.J.G.G.D.U.[.A.u E.9.#.#.,.3.#.W } ",
"W } | P I W W +.b.h._ 9 b D.G.G.G.C.L.Z.S.G.F.F.F.F.J.G.G.G.F.F.J.J.J.p.v d V.U.N h.m.+.@.3.{  .W E ",
"O.} ..P I @.O.+.B.E.t M F.G.J.V.F.F.f.u.i.u.i.F.F.G.J.G.H.F.F.H.D.D.J.H.p.v O a N 2 M.6.1.+X>.3.5.! ",
"+.+.*.#. .7.#.-.B._ t V.F.J.F.G.g.C M M x z u.G.J.J.H.H.H.H.H.H.K.J.H.H.J.f.s . . , &Xz.1.x.+X2.7.} ",
"^ :.*.,.<.3.} k.E., f.F.F.P.f.C B 9 s O O 9 a.p.K.G.H.H.H.H.J.J.K.L.F.f.H.J.f.r t R N.-.5.,.<.<.7.,.",
"~ | ..>.o. .! =.' t f.J.G.i.x + 9 B (.7XqXs s d.D.G.G.G.J.H.K.J.D.J.F.P.J.F.F.z t ].%X+.} @.o.>.,.,.",
"+.W [ o.{ [ :.' : C P.J.u.z 9 q B |.eXxXzXB s V f.V.F.G.G.G.G.G.F.F.F.H.d.p.D.C.t E.m.#.1.2. .o.,.<.",
"} @.>.2.<.} 9.n.< C.V.m r C {.U.B a 4 h Z 4 1 m C i.V.G.G.G.J.G.G.F.F.J.S.p.a.V.k _ ( } 1.>.<.<.7.7.",
"+.@.7.>.,.5.=.h.t Z.g + 1 Y.Y.G l & & $ $ $ o m M M Z.G.D.J.J.J.F.J.G.G.G.V V V N > ) ~ .. .I 4.4.,.",
"} } W I I ! ( _ k h * @ l l F e.w.T.!.~.;X~.o x m M V.G.D.J.J.J.F.G.G.G.F.V m f k < E.;.+.{  .#. .[ ",
"| X.I W ..+.( / < X & }.8X;XT.S 6 q.Q.,XuX<X& d v c f.F.G.G.F.F.F.F.H.F.f.M m a 1 > &Xm.1.@.7.4...[ ",
",.4.| ..6.;.) / e ` 5 :X>XA A ~.0XfXlXhXsX>X6 d w c p.F.G.F.F.F.S.S.P.F.i.M V s @ > N.z.1.7.,.,.4.4.",
"2.<.7.oX7.m.k.( T _ 7 :X2X=X8X7X-X;XtXhXjX,XD = 0 z i.F.J.F.F.F.p.V.J.Z.a.V C g @ 1 N.5. .,. .[ 7.,.",
"3.>.<.7. .4.-.-.m.) 7 -XfX.Xj Z w.^.A 9XhX,Xq.% @ z i.F.F.S.F.F.V V G.V.a.V V v @ : %Xv.{ >.,.Y >. .",
"3.3.>.,. .<.c.c.#.b.` ^.yXF `./.'.qX7Xq.fX1Xq.% @ f g.F.f.i.S.V.n V p.u.V M M f X , %Xv.@.,.OXo.7.,.",
"[ ,.{ 8.2.2.7.#.l.k.A.e.9XF J._.6X4XxXF iXtXT.6 o f u.f.u.M p.u.V x a.V M V m f : , m.+.$.4.2.2.7.2.",
"} } | 8.x. .>. . .*.h.w.9Xq.S.s.3X3XxXe.9X1X.X!.4 f N C M V p.c V M V V n n x r j.R ) P ~ | #. .<.2.",
"6.W ....2.[ [ >.3.6.` r.yXA &XP. XqXxXF uXaX<XXX4 h m V V V c c x u.b n n d m : E.B.( ! z...*.W ,.2.",
"5...5.#.3.<.3.2.+X6.] ^.aXQ.}.7XeXpXT.Q.sXhX9X}.4 k B m V V d V M m B n q a 1 u N.( O.O.,.7.1. .#.,.",
"I ,.4.@.{ 3.1.,.>.X.] ^.hXiXq.6 6 A t.sXjXjX9XT.* B Z B B x s V V m V x @ X e N.z.1.>.3.3.@.@.1. .@.",
"Y ,.1.#.[  .#.$.} :.n.U gXkXgXuXaXgXgXjXjXhX9XF * g B V g 9 d V m V t . X : ' m.*.,.,.>. .[ [ ,.@.@.",
"<.,.x.1.4.4.$.5.#.| E.7 ~.lXkXkXjXjXjXjXjXgX8X* h V B f + a V B m t e n.i u N.:. . . .7.>. .1.@.,.,.",
" . .#.+.*.*.} { >.#.=.n.7 y.9XhXhXhXjXdXdX1X^.* g B f O + g B f r < N.%XT $Xm.2.>. .4.{ 4.7.W } W W ",
" . .E +...! [ W [  .E =.E.7 ; U y..X=X.X.XQ.G @ f + O O a h @ X ` E.m.$X%Xc.+X+X2.,. .{ ....,.I [ [ ",
">.#.$.#.} [  .,.@. .#.6.m.9.$XM.' U $ 8 $ o @ @ X + o @ X   $ 5 W.b.%.$.6.#.2.2.3.o. .,.5. .2.2.o.<.",
"..#.#.P 7. .#.7.#.#.4. .4.7.4.z.b.W.h }.k X g s a Z.g o . ; e.-XR m.c.1.#.{ [  .3.2.,.5.8.<.3.OX3.OX",
"| P } { 4.#.#.,...4.} | #.#.7.+.b.h.Z j * Z [.f C.7X`.9 C.o 4 l R :.6.@X6.W K *.#.#.5...8. .>.>.3.2.",
"&.K W 5.[  .@.W { P W } W  .#.+.) i 4 % *  X|.z  XwX4Xc z O 4 l M.| ,.x.7.....$.[ } [ ..[ >.I W  .} ",
"#.[ #.{ W  .,.{  .[ ,.7. .>.1.z.B.t D - n 7X3Xp 6X7X4XF.0 s @ 7 E...,.>. .<.7.@.@.@.,.4.[ 7. .[ } E ",
" .,.#.#.[ ,.,.1. .2.3.7.<.>.<.6.E.1 !.D h 7X'.p wXwX6X(.d Z.o > *X6. .@.[  .>.>.,.@.c.,.>.>.8...c.*.",
"} ..} c.#.4.,.#.#.#.4. .#.7. .*.E.k XX- q G.P.f.xXxXrX7Xa V.1 > M.8.@. .W W {  .#.5.*.&.#.4.7.7.7.7.",
"P | | 4.5.#.#.W } W W W W {  .| n.l XXj Z.f 9 r w.Y.G h o o X R :.} } $.! K I [ W ..P K W {  . .>.2.",
"| W P *.#.[ W ..} #.W W } { { ~ n.1 j = U.7Xm 4 r.r.e.e.o C N h.:.} } +.Q L W ..W W K P } { >.I o.2.",
"&.P ....*.} W #.*.*.P W #.5.,.&.n.1 a 4 d Z k l 0XyXiX9Xk  Xg.n.;.5.5.#.| +.#.{ *.W P } 4.,.,. .o.<.",
"4.*.#.#.*.#.#...#.,.{ {  .,.,.;._ _ C  X|.g.@ 5 yXlXlX:X4 '.g.j.T | 6.6.-.#.@.{ 1.} }  .<.<.#.#.{  .",
"W [ I } } W W W ..} W W } } } +.T , : k g.g.Z = H .Xt.8   : e ) L W $.} } W } #.@.#.#. . .[ W ..} @.",
"K W *.W W { [ [ ! P K W | ..W } %.B.R.< r a * - - - 6 8 # R ^ ^ +.+.#.P W W ..! Q Q ~ *.@.W Q &.#.@.",
"E *.4. .[ #.#...W P W &.&.#. .5.v.-.b.> X = % j F F D o 3 M.=.*.5.#.$.} *...#.| Q Q ~ *.#...| ~ %.O.",
",.4.{ 7.,.#.#.,...[ } $.$.4.#.4.1.5.0.R $ 6 = & 8 6 = 4 ' :.;.| 1.@.#.$.*.#.1.7.$.| | | W +.Q J L J ",
"{ { ,.[ ..#.#. .#.} .. .}  .[ } O.1.| 0.; 8     5 5 5 : b.~ P | [ } ! } E } @.@.1.I W W P ..E L ^ J ",
"P ~ J E Q E } } } } W } | I [ #. .{ 4.9.u > > > 1 : < u ) ~ Q P ! ! ! W ..} } W #.[ ..| #.[ ..I P Q ",
"E ~ J ^ ~ E | ..} | ! &.*.[ } ,.4.#.#.| T R ' n.W.W.E.b.;.*.~ 3 | | | | *.#.| } 4...4.4.4...4...Q *."
};
