/* XPM */
static char *collect1722312236[] = {
/* columns rows colors chars-per-pixel */
"50 50 98 2 ",
"   c #087232",
".  c #065D26",
"X  c #076F31",
"o  c #065B25",
"O  c #056F33",
"+  c #076A2F",
"@  c #0A7935",
"#  c #077636",
"$  c #057235",
"%  c #087A38",
"&  c #087434",
"*  c #067436",
"=  c #05652D",
"-  c #067838",
";  c #0A7634",
":  c #0A7432",
">  c #065F28",
",  c #086D2F",
"<  c #056129",
"1  c #096A2D",
"2  c #0A7130",
"3  c #066D31",
"4  c #096E2F",
"5  c #06672C",
"6  c #056C30",
"7  c #07652A",
"8  c #046930",
"9  c #046D33",
"0  c #05632B",
"q  c #08692C",
"w  c #065923",
"e  c #05682E",
"r  c #086127",
"t  c #086329",
"y  c #0A7E38",
"u  c #0B7C36",
"i  c #077D3A",
"p  c #055522",
"a  c #966C40",
"s  c #986F42",
"d  c #05501F",
"f  c #9C7245",
"g  c #0A803B",
"h  c #0B6D2E",
"j  c #FAF35F",
"k  c #0A672A",
"l  c #AC8054",
"z  c #FAF157",
"x  c #0A843D",
"c  c #437B46",
"v  c #05491B",
"b  c #BD8E65",
"n  c #C1966E",
"m  c #B88659",
"M  c #B68051",
"N  c #926A3F",
"B  c #B88D67",
"V  c #BE8A5D",
"C  c #9B7851",
"Z  c #A37D53",
"A  c #A2774A",
"S  c #1A7438",
"D  c #AB7B4C",
"F  c #EFE361",
"G  c #2C773C",
"H  c #AC8660",
"J  c #B7AAA0",
"K  c #9B8764",
"L  c #6F4E27",
"P  c #7A7C51",
"I  c #677846",
"U  c #E9D473",
"Y  c #AD8E70",
"T  c #597F50",
"R  c #DABB79",
"E  c #B49D88",
"W  c #39834A",
"Q  c #B59E4C",
"!  c #167F3E",
"~  c #674520",
"^  c #436D3C",
"/  c #C3A080",
"(  c #CEA771",
")  c #C8C6CE",
"_  c #B8CF5A",
"`  c #286433",
"'  c #CAB950",
"]  c #80885F",
"[  c #67AD4C",
"{  c #696940",
"}  c #9EC656",
"|  c #8AA282",
" . c #449A43",
".. c #7B5830",
"X. c #95C44F",
"o. c #7E632C",
"O. c #6F5C34",
"+. c #066F25",
/* pixels */
"O O : @ % 1 4 # O 3 &   # * * , , % %   X   $ 9 9 # $ * i - O 2 @ * O O - - # - * O   % * O   i % g ",
"9 $ # $ * $ & X 8 9 e + 8 8 9 t 5 O $ * # X o w < 0 > e * O $ % & O 8 8 O 8 8 = = 8 O 8 8 8 O # - i ",
"+ 8 8 0 O * $ > t 7 < w p o 7 < = > + 6 O r d p o > 7 7 3 +   - $ 5 < . 0 o v v w o w p p o < 5 e 0 ",
": 3 e t 4   3 . k , + > w r 4 X 3 q : 1 q r k k 7 q ; $ X   : $ * 3 1 1 + < v p w o p p w 7 q + . w ",
"$ $ O & : 3 $ X 2   # 9 = + & # # # % -   4 @ ; , X # # # @   8 = 0 7   % X t 1 . , = > t , * $ e 4 ",
"8 + e   2 e 6 ;   , e = e + O 6 O ;   # * ; ; y % # $ = , : & < o p . X # $ , h + $ $ 3 q e 3 = + 4 ",
"+ 1 1 4   = 5 2 , e . o t 1 X 5 h ; 6 e k 2 : ; y g * > h   # 8 = k 1 X + 5 r . 5 e = = q = 0 d t : ",
"* O   , # O X   * $ = 7 2 - % & @ u * + : @ ; 2 @ g - 3 + = O O 3 : u ; X , 1 q 4 1 . w 4 O + r 1   ",
"9 e k 5 8 8 X 3 6 8 6 3   @ & % ; % % % g g y   ; % # & > p r . r : x i % u u ; y @ 4 k 2 & $ + > 0 ",
". > t d p o < = > . 2 q + ;   # ; y + + u g - # y y   : + > o k q   # - - % u % g g u 2 , 2 + q > o ",
"0 q k p w 1 + 8 q : u ; X @ # i g g r r   * 9 * g g % y # 7 . 2 &   3 6 9 & @ # @ u % ; ; u     2 o ",
"+ k h 3 5   O O & y % % # % : y x g 1 h   O 9 $ % * i x i X h ; i # 5 5 7 4 % i # % i % % g i i u < ",
". h O # #   5 3 $   6 3 O @ ; % g x y u + . . + > p e - - - X # ! 8 e 5 r 2 # * # u # $ & # # i i & ",
"r 7 + X 3 5 t 4 O 3 1 1 7 2 @ - i g x ; 4 q r 7 w ` c c c c c | J T c c c W S 9 X u & 3 + 4 + $ & @ ",
"r < 7 4 + 7 1 $ $ $ @ : 4 X # $ % y y u ; u 2 7 h I N C C C C Z Z Z Z Z H / P + - % # $ * %   : ; @ ",
"8 +   @ # X , < > 9   @ % $ 6 1 4 @ i i g x i X G O.L a s s s s s s s a H b Z ` O X > = $ #   % i g ",
"9 8 & # $ * 5 d d < X # - *   ; q O # $ i g % - c L L N a a a a a a a s n l D ^ e < p . 5 e r & - - ",
"t t r w > 0 w p 7 + 6 + X 4   u u & 5 X   5 0 S { ~ L a f f f f f f f Z n f Z T O 5 h : 6 5 5 4 + r ",
"t k w w k t w 7 : # O X u : ; u x %   @ 4 r 1 c L ~ L N a a a a a a a B B s Z T - $ @ % * X ;   , r ",
"    k 2 @ @ k 2 @ X O # @ y g y y   @ : u : ! { ~ ~ ..s s f f f f f A / H s D c   X X * # - #   ; : ",
"i - @ y g g @ ; 4 w q ; 2 x x i u 2 y ! [ _ } Q o.L N s s a a a a N H b f f K G , 1 1 2 q 2 + 0 : - ",
"- # % @   @ y - 5 t : u # y x i g  .X._ z z j z F ' Q f a a a s f f n l s D P @ X 2 @ ; q : 2 r 2 q ",
"$ & 4 ; 4 & y - O ; y g - %  .[ } F z z z z j j j j j F ' Q D a N A n A A C G # # @ i - $ & y : u : ",
"0 , e % % % % $ # ; : * S W _ j j z z z z z j j z z j j j j F Q Z B b D K ^ 5 9 O * O 9 O # % i g y ",
"= 0 5 % i $ , , X h t t P B n ( R R U F F j j z z z z j j j F U R E K P ` d . 7 > . d p t + 3 6 & u ",
"$ 7 k 4 # + 7 2 &   0 > I m M M n J / n ( R U U F F U U R ( n V B I S   7 . 7 q 7 w p w 2   3 < 2 u ",
"    @ 2 # $   ; y % = 5 c m l A E ) J M M m b / ( n V m M M M M m c i i   2 h , & < r q # - * , 2 & ",
"w 4 ; 2 + 2 ; ; & O 6   G l l s C J E A D D M B b B D l H l A m l G i % % u u ; % $ 2   & O O   1 6 ",
"r 4 @ : t k h X + 5 q : S K B f s C C a s f A M V l f E ) K f V Z S $ e   @ y @ O O     6 < 7 2 3 O ",
"& & % - O 2 X * $ 5 2 ; % ] B f N a s s s s f M V D a J ) Y l V P % * ; y u y   q q 4 # O + h 1 9 9 ",
"6 X 6 3 # X e e 6 6 7 + # c m Z a s a a a s f M V M f J ) E l n T i i x x i x y : 4 h   # # k o . > ",
"e = . q q < . o < 5 w q : S l m f N a s f s s B n H s J J Y m l G @ @ @ u i x x y   1 1 ; 4 1 o o k ",
"9 9 + 1 5 > q 4 6 e 1 : u ; ] n b H Z s N a f m b l s C C C V C S @   X & X % u # X h : @   ; ; 4 @ ",
"e 3 , >   + 2 @ * $ : X % i W P Y b b B H A s M V D s A l B V I @ % i @   t o , # # @ i % # # i % g ",
"< p . e * $ & X 6 $ > t 6 $ # h G I K B b n b m V m B n n V Y c 6 3 y x - > d h 6 O & O *   O O * i ",
"= d . 1 = 8 + r r . o t > k X 3 , @ S ^ P H m b b b V m K I ^ h t t : i - + 1 , 7 t 7 1 q 1 . . 0 0 ",
"e < 1 t o 7 1 5 7 r 2 ; q 2 @ # & u 4 r h G T K Y K I c S + . h 4 + , # $ * % 3 6 4 : : q 2 1 > t p ",
"9 X 1 4 7 h ; $ 8   @ i $ # % # g g   7 4 % - ; G ! i g u 3 t : & $ 6 + < 5   O O & % # O & % 2 @ 4 ",
". 1 1 # $ & # 9 9 X   $ 9 # X , ; % %   2 6 8 6 6 + $ i % % @ @ # $ 9 + o w 0 8 9 # * 9 O * % % y u ",
"w r 0 & # O 5 < 0 r . . w 7 5 7 7 X * # t o o t w r 3     y g X e 7 5 + o v p . . < p d o 5 3 3 & @ ",
"= w p 1 , < . 7 7 7 o w . 7 e < r h + 3 t k r r 1 X $ , : @ i $ + k 7 e . d . t o p v d r = e > , @ ",
"9 < t q   0 > 1 X 6 > o 1 & O 6   y O + : : 5 7   % - &     $ O 3 , & O 7 7 k 5 , o w >   * X + 4 # ",
"X O + + $ 9 e + $ $ 0 0 + $ * - % % # # ; &   X & - * * 5 . o d p 7 # - $ 4 1 e * = t 5 O $ O + t e ",
"o o > < < > > . 0 > o > r 5 = = + 3 O X X # % - - X . 0 1 . w v v t O e = > q 8 8 6 + q 8 < . 7 t 8 ",
"d w 1 < . . . . . d d w 0 = . k 1 = t r , ,   % * e o q 2 + . o r e e w w o r > o o 7 6 e o . 1 9 $ ",
"o 1   X 0 1 h e . p p 7 O O e ; # O h 2 4 7 , % * 9 , 2 O * 8 1   $ 9 < 1 7 X e > . = O 9 e t > = 8 ",
"X 2 O $ 9   O O = o t 3 O $ O # - - # @   e e   X O   5 8 9 O + X 9 9 O 1 3 # # , . . 0 0 6 w v d v ",
"0 0 + 0 8 + 6 9 8 = = 0 0 = 0 5 9 X   & $ $ O X . < 5 w w w o . > > < t w 5 O + 3 < w p w > w v d v ",
"d p d p w w < 7 = 7 w r t w r + 8 5 4 q o q O + > 7   7 r . o d w . > > t 0 0 o q q t t 1 r k w w w ",
"p p v w o p r 1 = < o h 2 > 5 * $ X : . v . = = 5 , % X 2 h . v o t > t : 3 < k 2 + 4 2   q : h r h "
};
