/* XPM */
static char *_0474e06aedb4f3eda030b12d923b3e4X2Psz0v3oHUF5evC[] = {
/* columns rows colors chars-per-pixel */
"50 50 233 2 ",
"   c #1C180D",
".  c #0D1D18",
"X  c #141A15",
"o  c #141519",
"O  c #151C1D",
"+  c #1B1C1C",
"@  c #1B1716",
"#  c #0F150D",
"$  c #22180A",
"%  c #221B13",
"&  c #231C1C",
"*  c #241617",
"=  c #1A260F",
"-  c #052B14",
";  c #0D2A16",
":  c #0C2619",
">  c #0D2A1A",
",  c #0B2515",
"<  c #132214",
"1  c #13231B",
"2  c #1B251D",
"3  c #132B1C",
"4  c #1A291B",
"5  c #08351B",
"6  c #143519",
"7  c #0D310C",
"8  c #2E240E",
"9  c #24221C",
"0  c #282717",
"q  c #2F3117",
"w  c #1B1D23",
"e  c #1A1A23",
"r  c #211D23",
"t  c #1E2224",
"y  c #182A25",
"u  c #0A3A24",
"i  c #153825",
"p  c #232324",
"a  c #232B25",
"s  c #2C2A23",
"d  c #23252A",
"f  c #262A2E",
"g  c #2B2B2D",
"h  c #2A2426",
"j  c #372924",
"k  c #26362B",
"l  c #363727",
"z  c #2B2D33",
"x  c #242A32",
"c  c #2C3235",
"v  c #2E3339",
"b  c #2D3A3A",
"n  c #263A36",
"m  c #343335",
"M  c #323B33",
"N  c #32343B",
"B  c #333B3C",
"V  c #3B3C3C",
"C  c #3A3539",
"Z  c #352D3A",
"A  c #44361B",
"S  c #423627",
"D  c #443D38",
"F  c #004515",
"G  c #004C14",
"H  c #014C1A",
"J  c #01411C",
"K  c #01541C",
"L  c #005A1E",
"P  c #094626",
"I  c #164526",
"U  c #025522",
"Y  c #015C24",
"T  c #045E2A",
"R  c #0C5D2B",
"E  c #0B5727",
"W  c #11572B",
"Q  c #1C4B35",
"!  c #0E5D32",
"~  c #185936",
"^  c #22442C",
"/  c #244C34",
"(  c #2A4938",
")  c #354939",
"_  c #235738",
"`  c #34543C",
"'  c #344629",
"]  c #016225",
"[  c #016927",
"{  c #04642B",
"}  c #0A642C",
"|  c #046B2D",
" . c #0A6A2E",
".. c #086326",
"X. c #13672E",
"o. c #02722D",
"O. c #09732D",
"+. c #027027",
"@. c #056431",
"#. c #0C6433",
"$. c #056C32",
"%. c #0B6C33",
"&. c #0D6D3A",
"*. c #096839",
"=. c #136533",
"-. c #126C34",
";. c #13643B",
":. c #19633C",
">. c #136C3C",
",. c #1C6C3D",
"<. c #1C6436",
"1. c #047333",
"2. c #0C7335",
"3. c #0B7935",
"4. c #0C743A",
"5. c #0C7A3A",
"6. c #047838",
"7. c #127235",
"8. c #13743A",
"9. c #1A743B",
"0. c #137B3C",
"q. c #1A7B3E",
"w. c #137737",
"e. c #226B3E",
"r. c #27613D",
"t. c #464436",
"y. c #554734",
"u. c #4F4F35",
"i. c #6B633F",
"p. c #353542",
"a. c #353A42",
"s. c #3B3B44",
"d. c #3C3D4A",
"f. c #393341",
"g. c #263242",
"h. c #423D47",
"j. c #344144",
"k. c #3D424C",
"l. c #3C4547",
"z. c #2B5B44",
"x. c #395847",
"c. c #3E4551",
"v. c #3E4C56",
"b. c #3E5153",
"n. c #1B6A43",
"m. c #0D7C42",
"M. c #0E7442",
"N. c #157442",
"B. c #1C7343",
"V. c #147C42",
"C. c #1C7B43",
"Z. c #1C7B49",
"A. c #236A43",
"S. c #296845",
"D. c #356748",
"F. c #237444",
"G. c #2A7749",
"H. c #35794D",
"J. c #3B6551",
"K. c #2D7751",
"L. c #3D7254",
"P. c #3A7756",
"I. c #43444C",
"U. c #4A444C",
"Y. c #444B4D",
"T. c #484849",
"R. c #48534E",
"E. c #5A5647",
"W. c #444652",
"Q. c #4B4655",
"!. c #454B56",
"~. c #4A4A55",
"^. c #464B5A",
"/. c #4A4B5A",
"(. c #4B4759",
"). c #524957",
"_. c #4B5155",
"`. c #495558",
"'. c #53585B",
"]. c #675A51",
"[. c #486B54",
"{. c #54665B",
"}. c #427353",
"|. c #45795B",
" X c #456B4C",
".X c #70684B",
"XX c #595B62",
"oX c #515A70",
"OX c #596765",
"+X c #54746A",
"@X c #686A67",
"#X c #687676",
"$X c #747574",
"%X c #6F6D70",
"&X c #857350",
"*X c #8B7B65",
"=X c #0E823F",
"-X c #12823A",
";X c #0A8042",
":X c #188145",
">X c #3A8159",
",X c #488362",
"<X c #988D7E",
"1X c #919279",
"2X c #958A65",
"3X c #AE9A7C",
"4X c #717E86",
"5X c #748288",
"6X c #7D9199",
"7X c #798A9E",
"8X c #9C9486",
"9X c #82939B",
"0X c #8A8F92",
"qX c #A69A89",
"wX c #9DA79F",
"eX c #B5AB95",
"rX c #B1A289",
"tX c #899AA4",
"yX c #888DA1",
"uX c #90A8A8",
"iX c #B1B5B2",
"pX c #C6AC93",
"aX c #C7BE9C",
"sX c #C0AD8D",
"dX c #D0B9A2",
"fX c #D6C29F",
"gX c #D6C6A9",
"hX c #ECD8B6",
"jX c #FEDEBA",
"kX c #E8D1AA",
"lX c #B0B1C3",
"zX c #CCCFCD",
"xX c #CFE0D8",
/* pixels */
"$.2.1.m.m.@.&.0.$.1.6.1.3.O.2.O. .0.5.1.@.M.;.;.~ A.n.&.m.6.$.6.0.3.$.| 5.m.2.0.5.1.1.4.6.1.$.V.5.;X",
"1.4.5.6.4.$.4.&.$.$.2.[ |  . .] [  .%.8.B.n.P u u 5 P ! >.>.>.N.-.2.%.$.6.{ &.{ ] %.2.%.| 1.$.2.5.5.",
"[ [ | Y %.8.&.Y { ] Y K K L } Y | T >.W i x.OXOXOX{.R.( - 5 _ r.<.T T Y { T F H U E K K K Y { @.{ { ",
"2.$. .Y -.9.%.L  .} =.R U T -.&.4.T S.i {.@X'.~.~.B g t X < 3 - Q S.~ :.>.@.H U E E K K U %.$.@.Y Y ",
"2.7.-.9.9. .2.2.2.w.q.%.{ @.4.M.N.n.Q OX'.U.p.a.s.k.~.~.Y.l.B n y > i |.K.*.#.>.Y %...Y Y &.0.2.%.7.",
"{  .] 7.2.] o.5.1.| #.#.=.#.*.;.~ u b.XX~.h.!.^.W././.W.!._.~.Y.~.V c > Q P.F.#.{ w.7. . . .&.{ | 2.",
"$.| [ | 1.[ +.1.&.#.W P Q I u i k j.'./.W./.~././.^.W.^./.~.W.~.!.W.~.j.y i J.~ } { ....7...U H { 1.",
"2.2.8. .2.o.1.1.&.A._ > ( {.@XOXXX~./.!.W./.!./.^.^.^.^.~././.!././.!.~.I.a i L.e.=.Y L %. .-.Y %.3.",
"&.T =.X...| 1.$.;.S.3 R.@XXX~._.~.~.!.b.v.!.^././././.^.!.!.!.!.!.!././.U.U.k 6 |.F.%.%.1.2.7.} Y { ",
"T } R H K ] ] @.W - R.@XU.C h.W.~.!.!.b.v.!./.~.(.Q./.!.!.!.!.!.v.^.^.(.).).V y Q H.C.[ o.1.] %.Y U ",
"{ #.=.K K %.$.-.S.i _.N d d././.!.!.!.!.!.!.~.Q.).).~.!.^.!.!.~././.(.Q.).Q.R.k 5 >X:X1.6.=Xo.1.9.T ",
"$.#.>.%.{ 0.&.;.z.y t w d.XXW.W.!.!.~.~.~.~.~.Q.Q.Q.~.~./.~.~.~./.^././.~.~.l.1 - P.N.6.5.=X=X3.8.{ ",
"{ %.-.7.w.w.T :.( . e d.`.^././.~.~.~.Q.Q.Q.Q.~.!.!.!.!.~.~.~./.!.^./.!./.~.z O y }.n.&.4.2.3.0.0.2.",
"{ {  .2.| [ { A.( . N !.!.c./.W.~.~./.~.Q.Q.Q.~.^.!.!.^.~.~././././.v.^.W.N e f a ^ A.%.{ | ] %.2.2.",
"{ Y .. .[ ] &.:.J.y I.~././././.^.^./././.~.~.!.!.c.!./.!././.W.Q.~.!.!.p.d z w M > K.N.1.0.2.2.2.3.",
"{ %.%.7.0.| &.! Q y !./.!./.W.~.!.^././././.!.!.k.s.W./.!.!.W.f.Q.~.!.j.r h.%Xp M > G.@.2.5.2.w.w.0.",
"&.$.5.2.| w.=.J > B j.!.!./.W.~.~.~./.^.^./.!.k.N N I./.!.I.z s.T.T.l.p * * h * M ; S.T @.$.L 3.3.3.",
"{ | ] L ] ] U P 3 N c !.W./.~.~.~.~./.^.^.^.W.a.N N s.~.W.p.e I.T.V + j ].%X].0 l ; P.B.{ { [ O.| ] ",
"T -.L L  .] U ~ 3 f d !.!.W./.Q.~.~././.^.!.d.v z N I.~.s.f o g 2 + 9 E.rXdXqX9 < - H.q.7.| 8.-. ...",
"-.7... .q.0.@.:.: + f I./.d.Q.Q.~.~.^./.^.c.a.c c c s.I.z w p a p T.E.l A 3XqX  , I <. .0.0.>.=.9.7.",
"5.2.5.0.w.:X6.>.- o c k.W.p.I.~.~.I.W./.!.d.N c z c v a.N o + + V @X8XeX&X&X<X0 I G.=.&.{ &.{ #.w.3.",
"5.1.3.0.[ 5.;X&.- X z s.p.f.s.~.I.s.k./.W.p.v v d c N N z + + + I.I.C l &XfX*Xl }.F.&.4.{ w.w.L 2.[ ",
"o.6.| w.| 2.m.>.- + d C Z f.p.k.l.N s.k.d.p.v c d z N v d p m $XlXoXoX'.l eX.X) e.2.:Xm.$.[ -XO.0.3.",
"] 3.] w.w.7.5.#.5 4 a m C Z N b B N v p.p.N N c t z N N g + s zXyXoX7Xj.u.1Xt. X,.3.*.$.1.5.O.-X0.5.",
"]  ...9.q.| 2.%.~ ` y g m N v v v v N N N N N N t f N v d 9 s xX5XoXg.c u.1Xl [.W Y H T { |  .| 2.5.",
"8.] .. .3.] ] %.,.r., g + g B b c c v N N N m m d d v c g h j iXiX#Xk.%XS rXt. X<.U U Y 4.|  .Y 2.5.",
"7. .0.2.6.6.6.5.V.B.I 4 2 a c c b B N v N N N N f e v N r 9 E.].zX0X0X<Xy.aXE.x.e.] ] [ 3.3.2. .%.2.",
"L 2.w.1.[ 6.5.1.1.>.S.; # X t B c v v z z N N m c o t B g s qXE.S t.t.A 3XhXE.z.F.2.O.O.+.+.| 2.| $.",
"] 2.5.2.] | o.1.$.T _ / < < X a c b v f g m N m z t w z g   8XgXdXpXsXfXkXgX' }.,.| 2.+.[ ] { &.$.$.",
"5.2.V.7.7.2.1.2.2.Y e.D.5 ^ x.: y c v x p p g C N d O t m 0 y.hXjXjXhXhXhX2X6 H.#.{ +.O.2.$.%.%.&.2.",
"$.| %.=.-.-.| { | -.T =.F.W S.P.y y f f p + p g N z w o @ 0 8 3XkXkXkXaXi.q H.G.8.2.| w.2.5.} Y Y Y ",
"| | K =.} ..] L ] %.K $.N.N.N.n.L./ 3 y t + @ + p m d r @ $ $ A 2X.Xu.6 q }.G.Z.V.$.| ] 5.| -.K ....",
"%.%.%.%.{ ] | 2.| | | 2.:X1.V.w.C.F.,X/ . X o o + + h + * * %   = ' r.H.G.X.0.w.2.1.| 2.4.$.w.0.| 3.",
"{ %.%.L 0.| %.0.2.w.w.| 0.0.3.5.o.:XG.|., O O d Y.d o + & & @Xk 3 }.K.N.%.] L [ 3.5.2.0.5.2.4.=X3.-X",
"} K { { w.%.%.&.{ 7.Y ]  .| 3.[ 1.1.F.,Xi '.t '.0X_.w '.N O m ) / H.Z.Z.8.] G 7.%.%.w.| 0.1.1.1.6.5.",
"%.G Y 7.] | %.Y { L Y [ Y | 1.| o.5.H._ n OXy #XtX4Xx #X#X1 O 1 z.~ &.N.8.%.{  .] [ {  .] 1.] Y | { ",
"%.] %.{ Y | 2.{ { ] 2.0.{ 1.2.5.1.G.}.> R.l.n #X9X6Xx OX0Xa.Y.y }.:.&.4.%.9.q.| | o.2.9.{ 8.| ] { U ",
"| 2.%.%.] 2.7.w.{ w.5.V.2.1.4.2.0.K.` 2 #Xc Y.5XuXuXa.!.9XOXc n z.:.@.2.Y { %. .1.| C.-.-.=.0.$.C.-.",
"{  .{ C.%.7.&.%.&.%.8.| | 0.| $.C.>X< & $Xp $XwXxXzXXXs.tX5Xx b.u S.&.$.T Y } } %.w.>.-.=.9.0.5.0.w.",
"K } } 7.7.%.%.Y } Y Y Y L [ $.{ R S.1 p $Xa 0 t.{.T.z p.9X9Xc b.5 H.>.@.{ G Y Y Y { K G Y { | o.1.5.",
"} Y K 7.%.] Y } ..} Y Y Y | | ] U P n z $X2 t.y.y.t.p !.tX6Xc.Y.i }.! $.{ K ..} Y Y G K } { 1.L o.5.",
"-.L } { &.{ Y %.-. .Y Y  .2.2.&.A.i y B #Xa qXsXrXeXD Y.tXtXOXB a D.,.&.{ {  .{ -.Y U { 9.&.2.| O.3.",
"2.2.%.%.7.%.%.{ 4.&.{ { | 4.2.9.|.k p V OXa qXkXhXgXC Y.6X9XOXc k ^ e.7.2.2.%.| 2.{ { { 4.4.%.%.{ | ",
"Y ] L { { Y Y L { { Y { ] $.{ =.J.) h p < # 8 .X*Xy.  V Y.c.n : > 5 :.%.| ] ] | |  .%.} { ] Y } { $.",
"G Y -.Y Y { { T Y K H U T #.Y R x.t.D s 2 4 0 8 8 8 0 % 9 2 . J.L.A.#.K Y ] { Y Y Y } &.$.Y Y %.&.$.",
"U -.9. .] %.&.} Y K K =.=.-.{ F.L.) M M [.` = s S S l %   # 3 J.A.>.&.@.} { %.%.Y Y T -.&.| } R #.@.",
"7.9.{ 0.2.%.&.7.{ T } %.&.&.$.Z.K.5 5 }.D.[.< j j j % $ q 0 ( _ >.$.@.7.=.%.w.w.&.{ { { ] %.E F H F ",
"{ { -.Y  .%.&.$.%.{ %.{ { %.{ { &.B.,.A.A.|.1 h j j %   0 = ` ~ @.{ T #.K } 2.| 2.Y Y Y K } U H E F ",
"K R F U U U { { { { Y { } L ] &.$.{ 8.#.U _ / 3 2 2 3 , 6 I D.E T { { Y } { { Y %.{ } } %.] } L K R ",
"U R F E R U }  .{ } Y -.=.Y { 2.4.%.8.Y H ~ D.[.{.OX+XJ.D.r.<.5 } } } } -.%.} { 7. .7.7.7. .w. .Y =."
};
