/* XPM */
static char *_e225607e7c24642a974cc229c6af570I1MshHbzzcaFdcij[] = {
/* columns rows colors chars-per-pixel */
"50 50 236 2 ",
"   c #1D120C",
".  c #171308",
"X  c #1E1711",
"o  c #28110A",
"O  c #2A1B16",
"+  c #271815",
"@  c #371C16",
"#  c #132C1B",
"$  c #1E2716",
"%  c #063A1A",
"&  c #12311E",
"*  c #0D2E1D",
"=  c #22240F",
"-  c #2A2A1B",
";  c #34231C",
":  c #35281B",
">  c #2D321C",
",  c #32311E",
"<  c #162F21",
"1  c #083A20",
"2  c #183724",
"3  c #352624",
"4  c #342B25",
"5  c #3C2B26",
"6  c #3C2927",
"7  c #283927",
"8  c #333B24",
"9  c #3C322B",
"0  c #353621",
"q  c #3C3B37",
"w  c #442B27",
"e  c #46362D",
"r  c #563829",
"t  c #423432",
"y  c #4C3C39",
"u  c #483A37",
"i  c #553D36",
"p  c #014B17",
"a  c #014A1A",
"s  c #09461D",
"d  c #00541C",
"f  c #00591E",
"g  c #00450F",
"h  c #0C4523",
"j  c #044C23",
"k  c #0D4C28",
"l  c #144C2B",
"z  c #19462A",
"x  c #025522",
"c  c #0A5526",
"v  c #015C24",
"b  c #0A5B26",
"n  c #0D552B",
"m  c #045E29",
"M  c #0C5C2C",
"N  c #045628",
"B  c #12542C",
"V  c #14572E",
"C  c #1D4C30",
"Z  c #0F5C32",
"A  c #125D34",
"S  c #195734",
"D  c #27442E",
"F  c #2B4837",
"G  c #37483A",
"H  c #285A3D",
"J  c #334834",
"K  c #026325",
"L  c #04642A",
"P  c #0A652C",
"I  c #046B2C",
"U  c #0A6B2D",
"Y  c #056626",
"T  c #136B2F",
"R  c #03722E",
"E  c #0A712E",
"W  c #056631",
"Q  c #0C6532",
"!  c #056B32",
"~  c #0B6C33",
"^  c #0C6D39",
"/  c #076E39",
"(  c #136333",
")  c #116C34",
"_  c #13643A",
"`  c #146D3A",
"'  c #1B6C3D",
"]  c #1A673A",
"[  c #047333",
"{  c #0B7234",
"}  c #047A35",
"|  c #0C7936",
" . c #0D743A",
".. c #07793A",
"X. c #0B7A3B",
"o. c #057239",
"O. c #127235",
"+. c #13743B",
"@. c #137B3B",
"#. c #177639",
"$. c #4E4536",
"%. c #58473A",
"&. c #59513E",
"*. c #44422D",
"=. c #62433C",
"-. c #684738",
";. c #734535",
":. c #754A3C",
">. c #7A4D3E",
",. c #72473E",
"<. c #7B513E",
"1. c #77523F",
"2. c #3E4F43",
"3. c #3A5846",
"4. c #2B5B41",
"5. c #1B6941",
"6. c #0C7C41",
"7. c #137640",
"8. c #147C42",
"9. c #1B7744",
"0. c #266643",
"q. c #366446",
"w. c #2E724D",
"e. c #484744",
"r. c #5E4542",
"t. c #584B47",
"y. c #47594B",
"u. c #5D5349",
"i. c #575A55",
"p. c #4C5B56",
"a. c #624641",
"s. c #654C42",
"d. c #684D49",
"f. c #744D43",
"g. c #7B4E41",
"h. c #724F49",
"j. c #675349",
"k. c #745245",
"l. c #7C5343",
"z. c #7C544A",
"x. c #7C5A4C",
"c. c #73574A",
"v. c #635A57",
"b. c #7C5D52",
"n. c #785A56",
"m. c #45634F",
"M. c #496755",
"N. c #55685B",
"B. c #51735A",
"V. c #63645D",
"C. c #6C655D",
"Z. c #7E635B",
"A. c #796156",
"S. c #635F60",
"D. c #5B6960",
"F. c #5F7465",
"G. c #636663",
"H. c #6A6865",
"J. c #687A6C",
"K. c #76746A",
"L. c #787774",
"P. c #6D7370",
"I. c #814A3E",
"U. c #81513F",
"Y. c #824E41",
"T. c #825444",
"R. c #825947",
"E. c #845B4B",
"W. c #895B4C",
"Q. c #855447",
"!. c #835E54",
"~. c #8C5E51",
"^. c #925E52",
"/. c #8D6454",
"(. c #85655A",
"). c #8D665B",
"_. c #8E6B5D",
"`. c #856555",
"'. c #926555",
"]. c #936956",
"[. c #936659",
"{. c #93695A",
"}. c #9A6B5C",
"|. c #996557",
" X c #92634F",
".X c #A2725E",
"XX c #886B64",
"oX c #9D6F61",
"OX c #926E62",
"+X c #87746A",
"@X c #9E7163",
"#X c #9C756B",
"$X c #9C7B6C",
"%X c #937267",
"&X c #837D7A",
"*X c #9C7B71",
"=X c #A27365",
"-X c #AB7464",
";X c #A4766A",
":X c #A47B6C",
">X c #AA7A6C",
",X c #A37D73",
"<X c #AA7E75",
"1X c #B27C71",
"2X c #A36D61",
"3X c #0B803B",
"4X c #178144",
"5X c #0C8542",
"6X c #228147",
"7X c #558466",
"8X c #64836D",
"9X c #618974",
"0X c #76877B",
"qX c #81817F",
"wX c #A38173",
"eX c #A98477",
"rX c #7F8F84",
"tX c #878584",
"yX c #918B88",
"uX c #89978B",
"iX c #96948E",
"pX c #8B9A91",
"aX c #999896",
"sX c #A29B99",
"dX c #A59897",
"fX c #B38D82",
"gX c #8EA797",
"hX c #96A399",
"jX c #81A38B",
"kX c #A2A19F",
"lX c #9EAFA5",
"zX c #A8A7A4",
"xX c #B5ACAC",
"cX c #A7B5A8",
"vX c #B6B6B4",
"bX c #B1C3B4",
/* pixels */
"[ R  . .+.! [ ..[ I | [ X.[ +.~ I X.8.! {  .` ^ /  ./ { 8.[ [ [ 3X} R [ 7. .6.o.| E O.{ 7./  .X...6.",
"I [  .{  .{  .{ L [ K K I I / m I ! ~  .` ` N j M Q N Q ) ^ ^ +.X.[ I I L ! ! / U U U U W W !  .X.X.",
"U U P K ~ { ~ v K P v K d d ~ W L ! ~ ( ] j C H F C H 4.0._ _ 9.^ ~ K K L m p p v v x x x K L I L K ",
"{ U P L {  .~ v P U ) K d P ~ W ^ Q ' n 0.7X7 uX0Xe.pXgX9X1 w.S 0.A Q ~ ~ L g b x x x x x L I I v v ",
"[ [ { { ..[ [ { ~ O.+.L U ^ / 7.5.5.H q.cXhX5 O 4   4 4 7 y.lXF z H A +.{ I T P P Q Q P K { { [ U { ",
"I I ! { o.I I  .{ U L U L W  .Q 0.9XgXy.V.: ; =.a.i a.d.e 3 y 9 N.8X1 0.) U U ) Q ` ` ~ L U I L L U ",
"[ I U ~ { ! [ [ U U m m L  ._ l 3.cXi.. . e OX,X%Xf.<X;XOX=.r o +XK.G 1 ( P Y K W W Q P I Y m d I [ ",
"[ ~ ) ) ) ! [ [ ~ #.L L +.' S jXi.4 ; d.XXb.%X@X/.T.-X2X|.T.;Xx.@ ; - pX7X( ~ U  .L m v U ~ ) m U { ",
"~ L ( M P U [ [ I L ) ( ' w.m.K.$.@ %X*X(.z.Q.|.|.>.-X-X X<.:X].z.n.%.H.3.l 9.{ 7. .[ R U #.~ Q m L ",
"m m M d d m K L K L ~ ( S H bXC.@ h._.#X/.l.Q.'.'.U.>X-X XT.:X/.k.,Xr.  P.M.Z 9.8.4X3XR Y { W W m x ",
"L P P v v P U I I [ 8.` q.N.e.u.w x.[.;X'.Q.Q.'.].T.;X;X/.l.:X).z.#Xa.y iXN.l 5. .X.} } R | o.{ +.M ",
"P ) U P U +.~ I } 5X4X( B.bXH.+ (.;.'.>X'.Q.^.}.].l.@X;X_.k.#X).k.$Xn.3 X p.m.H 7.X.| | 3X3XX.8.+.L ",
"K ~ ~ { O.) L I [ R / n B.K.3 u #XT.'.>X/.1.@X@X/.k.=X=X{.z.#X).l.@Xz.h.y L.p.z ' @.[ R R [ [ X.@.{ ",
"m L I { ! L P ~ } I ~ h J.K.3 d.:XT.'.>X/.l.;X@X/.l.=X^.~.R.;X/.l.oX>.).; V.G.D M @.O.I I [ R R | | ",
"K L I ! U K U [ R { 9.S bXzX6 r.,X:.'.;X/.T.=XoX'.l.;XY.Q.T.=X'.T.l.;.).9 cXaX7 A 9.+.{ [ } E U | | ",
"~ U [ X.+.U ~ L K ~ ] l y.e.+ d.*Xl.'.@X].>.=X=X/.<.=XU.W.T..X'.l.R.:.`.4 y.e.# A / m L [ [ E #.| @.",
"~ ~ { { U #.L d d m ( C rXiXy r.,Xg.{.;X/.l.>X=X/.l.;XT.R.T.=X/.z.x.=.+Xt kXaXF n L d K I I K O.O.{ ",
"L L K v v Y v v Q P ' % N.i.+ s.,X:.'.@X/.l.>X;X/.l.;Xl.R.l.=X/.f.%XXX+Xt.H.p.< A U U O.U L I U U K ",
"L U v f K I v W ~ #.P l hXaXu a.eXl.|.;X'.l.>X;X/.l.=Xg.W.R.=X[.k.Z.A.C.u H.H.3.( ~ @.@. .[ { [ U L ",
"{  .U [ @.@.W /  .~ ' l 0X&XO a.OX;.'.@X'.l.>X=X'.l.;X>.W.R.=X[.k.c.j.j.q q L.2 M { ~ [  . . .[ O.) ",
" .@. .@.@.@. .[ [ f ~ B D.H.6 d.E.;.'.@X/.l.>X=X/.l.=X>.R.T.=X'.f.#Xd.Z.9 H.V.7 n ^ I I I { I K { { ",
" . .| X.I [ 6.X.I K O.B bXvX6 s.E.;.{.;X/.l.=X=X/.l.=XW.W.l.;X'.l.,Xk.Z.9 xXxXF A +.O.@.I { ! K [ I ",
"~ { [ | I E X...I @.6XB y.t.O s./.;.'.@X'.<.=X=X'.l.=X|./.l.;X'.l.@Xb.Z.3 G.i.# A +.@.@.!  .X. .@.| ",
"L I I X.| | X.[  .{ O.B G &Xj.%.$X<.'.;X{.<.=XoX'.l.=X=X'.l.;X'.>.>Xk.(.5 dXzXy.n +.{ U {  . .@.@.X.",
"L L I | | [ ! ! [ I P % J.xX%.=.:X>.'.@X].l.oX=X'.l.oX}.'.l.;X'.I.1XT.).w dXxX2.k m d f L ~ ~ U  .X.",
"+.L K { | Y L { [ { P s N.t.o a.,Xl.{.;X/.l.=X@X'.l.=XoX'.l.=X'.Y.1XW.!.w v.y # B m f m / { U K [ | ",
"^ { { { { E {  .4XO.P s uXsXi a.,X:./.@X/.l.@X@X/.l.=X=X'.l.=X'.>.;XE.b.e v.L.3.Z I K I  .X.[ I [  .",
"v ^ @.U Y {  .{ U O.P S pXtXt a.*XE.[.]._.k.@X@X/.k.=X=X'.l.=X'.l.eXk.(.9 yXD.2 _  .[ [ { I R [ U U ",
"L ^ +.~ Y U [ { ^ v ) l 2.t O %.wX#X{.).f.:.#X@X/.k.;X;X'.l.=X'.>.;Xx.A.6 i.q & Z { { [ I K I [ [ { ",
"+. . .{ O.{ / { ~ L ' B hXsXy r.wXf.fX#X_.`.oX@X).k.;X;X'.l.=X'.>.>Xk.A.e sXaXG c W ~ { { U U U ~ / ",
"/ ! ~ ~ { { W L / ) P k 0Xv.O r.*Xf.x.#Xx.z.;X@X[.k.;X;X'.l.=X'.T.=Xl.(.5 yXV.# A { ~ { +.{ U K v m ",
"I K K L I K m m K L b h J.L.4 r.*Xz.!.`.!.k.;XoX].l.;X;X'.l.=X'.I.=Xl.(.5 H.G.F ]  .U I { { I f K L ",
"L O.^ L U K U ~ I ) ( l vXvXy =.eX>.[.:X].l.oX;X/.l.=X>X'.T.}.:.T.=Xl.(.5 sXcX3.A ~ I {  .[ { { ~ { ",
"P ~ L K O.U ~ @.O.T ' l hXL.3 s.eX>.|.;X'.l.=X}./.l.=X>X'.T.|.;.l.=X>._.9 iX0X& ( @.| | X.X.{ @.| @.",
"P f K U { [ { ~ U ) b % p.u + s.eX>.'.'.W.l.;XoX].l.=X;X'.R.}.;.T.>Xg.!.6 v.e.& n +.~ E  . .I {  . .",
"P d L ~ L I I K K v x S N.v.u.%.eX>.'.T.R.T.}.@X].l.=X=X'.T.}.;.T.;Xz.!.e dXhXm.j P L I I I K f L L ",
"U L U L m L I U K L ) B M.aXy =.eX>.|.T.W.R.Q.'.'.l.=X=X'.l.{.;.z.,Xk.Z.9 zXzX3.V ^ O.{ I [ ! K m v ",
"U U ^ ~ L ~ { { U O.9.V J.i.  s.wX>.|.T.W.R.g.'.{.l.=X}.'.l.@XR.k.$Xb.+Xe.L.i.* A +.+.+.I { +.U #.O.",
"P L ~ +.~ { +.U L ) ' k D.H.9 %.:X:.|.l.R.R.'.}.{.l.=X}.[.l.;X].c.+X+XK.q G.G.D A +.+.~ !  .#.@.@.@.",
"v P K { +.{ L L U K c l cXvXv.%.:X:.}.T.W.R.=X@X/.<.;XoX{.l.;X).-.c.j.v.e.zXtX3.j Q d d m W L U { | ",
"P v d ~ ~ L m L P Y c h uXxXt.%.:X:.|.T.E.T.}.@X'.l.oX;X/.l.;X[.k.A.d.d.u S.G.F j x d d W W P v E | ",
") L L ~ ~ K K ~ ) ) M h uXtX9 %.:X<.|.l.l.R.=X;X/.l.=X>X'.l.;X/.k.,X!.n.t H.i.7 V M v m +.+.) P [ [ ",
") U ~ Q ) P Q P ) U ( h p.e.+ =.{.>.|.'./.l.=X@X'.l.=X>X'.l.;X[.f.;Xz.XX6 v.e.< S Q P P  ./ ~ U L L ",
"v m L m P L L v P P x l hXxXt.r !.l.'.;X].>.=X}.'.l.;X>X'.l.;X'.T.{.f.(.t sXaX3.V Q P W ! m K U W W ",
"p m L L v m m m v d a % aXaXy %._.l.|.;X[.l.;XoX/.l.=X>X'.l.;X'.T.g.,.XX5 iXtX2 j K L ~ ! K K W / / ",
"m ) ^ / L ~ W ~ m d c C pXK.+ s.,Xg.|.=X[.l.}.=X].l.=X>X'.<.;X'.l.{.f.!.e yXG.2 c L L ~ W W L m Q Q ",
"~ ^ ^ ~ ~ { ^ ~ K K ( h p.e.; r ,Xg.'.@X/.l.oX=X].l.=X;X/.>.=X'.>.;Xl.(.; v.G < V P b P P Q b p p p ",
"L P ~ L P P ~ ~ U P Z B pXtXu ; c.k.%X$X_.x.wX`.-.r `.$X_.x.wX_.c.`.r s.; yXaXJ B M d d x M b p s p ",
"x b p x x v L L L Q x h 8Xy.- $ , *.$.u.$.$.%., - - , &.&.$.&.&.e 0 : , - 0XF.* V L L U P L P x d b ",
"c c p c b x m P W m M S D 7 7 J D 8 8 > = > 0 > 8 8 8 J 8 0 > = 0 0 > 0 D F 2 C ] ~ ~ { O.~ O.U Y T "
};
