/* XPM */
static char *f95254a7adea4247b9c97ffc70213e4cBMLi1TzX7lSRIyeG[] = {
/* columns rows colors chars-per-pixel */
"50 50 163 2 ",
"   c #05310F",
".  c #08340F",
"X  c #053611",
"o  c #043C14",
"O  c #093E13",
"+  c #013E18",
"@  c #054217",
"#  c #084215",
"$  c #0A4817",
"%  c #034519",
"&  c #084618",
"*  c #044C1C",
"=  c #094C1B",
"-  c #05511F",
";  c #0A531E",
":  c #0E581D",
">  c #12581E",
",  c #034F21",
"<  c #045422",
"1  c #095621",
"2  c #055B25",
"3  c #0A5C24",
"4  c #005729",
"5  c #045E29",
"6  c #085F29",
"7  c #066027",
"8  c #0B6226",
"9  c #05642B",
"0  c #09652A",
"q  c #066A2E",
"w  c #0A6B2D",
"e  c #116224",
"r  c #106829",
"t  c #0C722E",
"y  c #12732E",
"u  c #036631",
"i  c #046C32",
"p  c #096E31",
"a  c #057335",
"s  c #087032",
"d  c #097032",
"f  c #087132",
"g  c #087133",
"h  c #087233",
"j  c #0A7232",
"k  c #0A7233",
"l  c #0A7130",
"z  c #0C7230",
"x  c #0D7431",
"c  c #0E7733",
"v  c #087034",
"b  c #087134",
"n  c #087334",
"m  c #087235",
"M  c #097236",
"N  c #097434",
"B  c #097535",
"V  c #087635",
"C  c #0B7634",
"Z  c #0B7635",
"A  c #0A7735",
"S  c #087737",
"D  c #097737",
"F  c #0A7432",
"G  c #067937",
"H  c #0A7835",
"J  c #0B7837",
"K  c #0A7937",
"L  c #0C7836",
"P  c #0C7A36",
"I  c #0E7A36",
"U  c #0D7935",
"Y  c #0C7D37",
"T  c #0D7C36",
"R  c #0E7E37",
"E  c #0C7A35",
"W  c #037138",
"Q  c #037239",
"!  c #03733A",
"~  c #047238",
"^  c #037439",
"/  c #03763B",
"(  c #057438",
")  c #057538",
"_  c #047539",
"`  c #057638",
"'  c #047639",
"]  c #057639",
"[  c #057739",
"{  c #077738",
"}  c #067739",
"|  c #077739",
" . c #04763A",
".. c #05773A",
"X. c #06773A",
"o. c #047539",
"O. c #087738",
"+. c #057839",
"@. c #077838",
"#. c #067939",
"$. c #077939",
"%. c #06783A",
"&. c #06793B",
"*. c #077B3A",
"=. c #077B3B",
"-. c #077D3B",
";. c #04793C",
":. c #05793C",
">. c #047A3C",
",. c #057B3D",
"<. c #057C3C",
"1. c #077E3C",
"2. c #057B3B",
"3. c #097938",
"4. c #097939",
"5. c #087A38",
"6. c #087B39",
"7. c #097B39",
"8. c #097B3A",
"9. c #0B7D38",
"0. c #0B7D39",
"q. c #097C3A",
"w. c #097D3A",
"e. c #087C3B",
"r. c #0A7F3A",
"t. c #0C7E39",
"y. c #0D7F38",
"u. c #097E3C",
"i. c #087F3C",
"p. c #087F3D",
"a. c #0A7D39",
"s. c #107430",
"d. c #117C34",
"f. c #037E40",
"g. c #0E8037",
"h. c #07803E",
"j. c #06823D",
"k. c #09803B",
"l. c #0B813B",
"z. c #0E833A",
"x. c #0B803C",
"c. c #09803E",
"v. c #0A823E",
"b. c #0C833C",
"n. c #0A853F",
"m. c #0C843C",
"M. c #0B833C",
"N. c #0D893E",
"B. c #108037",
"V. c #128338",
"C. c #11853A",
"Z. c #118A3C",
"A. c #0F913F",
"S. c #12903F",
"D. c #058541",
"F. c #088340",
"G. c #088440",
"H. c #098640",
"J. c #068A43",
"K. c #0B8941",
"L. c #0B8C42",
"P. c #0D9344",
"I. c #119241",
/* pixels */
"i i t U b.8 w J ! 0 0.p 0.v S h q p.v.i w f ,.~ i 1.( ^ F.4.i w t.( v i 4.h.f 4.,.b w v.( h p v.S m.",
"i ( v.v ( i S a q ! 9 b i i ( 2 q b ~ ,.&.J < , 5 q < 0 1.i ! p.a ~ i u ( 9 ! u 9 u &.i i i ( &.f.H.",
"w q i < v ( ( < 0 8 8 * < < 8 2 i < p q ,.3 & = 3 3 0 6 v 9 b 0.f 6 3 1 9 < + % 2 2 < - * 1 2 0 i 5 ",
"U i 0 1 z f f * w p p 3 < 3 x i f 6 V.3 q 1 w w 0 0 l.i p f T i ,.i w w q q X 1 1 3 , 1 < w 0 i 1 = ",
"v S v 0.U u &.v x h n.i 9 p a &.&.( k.-.S w k.S 0 w a p.( k.p i q u 6 J p.p 6 T & 0.9 6 8 p &.4.9 t.",
"i q 5 S w u w 0.f p 9 u q w h p u U i 4.( t.p K.0.S a 6 i f T < 3 % 3 v 4.( f p p ( ^ b 0 q v u b 0 ",
"q w 0 w C 6 6 c q q 2 1 8 8 i 6 0 d.9 q 3 f f f M.v.-.* s.p h.u 0 w 0 f 9 9 3 1 q q 9 i 0 6 q o 3 U ",
"4.i l.9 p.~ h f ( 0.9 9 S 0.v.h m.0.( 6 T J F w J v.1.i S 9 v ( a f C.S q w w w p w 3 # C v i 8 f D ",
"v u 8 i i i J i p u i a f 0.p v.f J v.n.M.k.m.q x J ^ 4.< & 0 - 1 F N.0.1.k.g.f n.0.w w S S ( v < 0 ",
"1 < w + * - 2 q 2 * T 2 q U i v w Z.9 9 l.n.&.a l.l.0 c q 0 1 w 0 F a 1.;.J l.a v.v.V.w q t 9 w 2 2 ",
"9 f w * < x q u 0 U V.U q 0.( v.k.S.1 1 f v q a v.H.J m.G 9 = T v q i q u &.x a J T J F F C.w F x 1 ",
"v 3 p S 2 J v i S N.&.h.( 0.w l.h.N.3 y a ;.~ v H.^ h.H.-.q w J h.k.6 w 8 0 v.1.f 0.v.-.a n.0.4.Z.< ",
"- U i 1.-.J 6 p a w i i i l.t J j.H.k.m.0 - < h 2 * q <.n.h.F h j.u i q 3 U v ( &.0.h v D S 4.1.p.&.",
"8 0 i w i 0 2 f i i 8 w 1 F J &.&.J N.f t w 3 w - 1 2 q < f 8 q 9 * w 0 9 S a i 8 m.i i 8 w 6 a f U ",
"8 6 8 w 0 6 w ( ,.i m.F p q k.i h.0.J T t l.f 7 w x q 6 % w J i 2 F w w q S i v v.G v.( a v.b f x c ",
"q i f t.&.q F 5 4 ( w U 0.a 0 0 w J k.F.4.L.-.q J N.-.9 0 k.&.&.D.m.3 L.8 w 2 < ~ S 4 9 &.a S 0.1.v.",
"^ u 0.0.! h.w % % 6 F 4.;.&.~ C.3 i h.u m.n.D.;.&.P.&.F.J 0 q 6 a a.0.1.1.v.c 0 9 8 # 1 9 i * T &.p.",
"9 3 0 * < 9 < - t 0 i 0 0 q f T 0.4.< t F 5 2 0 f f 5 a q 2 * 0 q h 2 p a.q T J a 9 t l.q 0 0 w q 1 ",
"3 s.= 1 0 8 < 0 f k.i 0 I.w x a.N.v.i m.0 2 t 0 w 1 x 0 a % % l.a i 8 d.0 0 q k.&.v k.&.( w 0.f i > ",
"z S 8 f J m.1 F 0.b v 0.x k.m.G m.9 k.q m.q g.j.J 0 N.-.&.1 H n.H.4.I.Z.a 1.f Z.i b w ~ k.0.0.f 0.S ",
"v.,.J m.v.n.4.S F % 0 U 9 P.N.&.n.8 Z.h P.J n.J.n.g.j.P.1.a a.l.G m.0.n.J.D.N.l.q 0 0 x 2 x q 5 x 1.",
"( v l.S i S k.&.9 3 U t.a 0.n.D.a 0.Z.-.J.D.J.h v P.N.h &.i % t J p q n.&.<.L.S i z J U 7 T z * x 2 ",
"( 4.0 t.0 f 0.&.q 0.l.n.a J k.u P.0 l.J w 0 < 0 7 K.5.T 0 * 3 0 0.&.i 9 2 9 h &.a x H.&.v q K.w C.z ",
"1 J 5 v.0.4.v.i h.4.x ^ ! m.V 7 0 z k.J.m.t * t 0.k.J.P.6 8 c a k.;.~ a 0 ; i i a h.v i ~ -.-.v.v.0.",
"q 9 9 l.v.v w w q w 2 9 3 w q 0 ; d.G k.h.F 6 w t F &.F t t L.i w 7 0 h 0 + 2 0 1 2 @ = 3 q i u b T ",
"4.3 8 0 0.6 6 x h F 0 2 F 0.G 0 t Z.h t x g.p 7 N.n.n.t A.j.j.h.-.c f h 0 2 0 w 0 2 1 < T i f - f l.",
"D v m.w &.( S f n.H.5 0 J h.v.G N.L.K.f m.k.x F G J.H.J.C.t h i v w N.n.w c w 9 m.1 8 0 &.v.S i s.a ",
"= f x i q f 0.J S h i 0.w &.0 D.m.-.k.J.T n.P.N.j.&.q N.m.c 2 3 % f h.-.F.U g.F h.( f F G i ! C 8 i ",
"3 t U U 1 e w i 0 0 7 F w h 1 m.l.a d.T M.0.j.P.L.a 0 P.h.J.&.J w q G < f F m.0.i ~ S q i < 2 F q v ",
"4.a 0.1.i x f 1.&.5 T J 1.v.a N.K.0.F Z.k.q H n.L.v.J q ^ i 1.w k.1.i x m.a m.q 0 0 q 0.i 0 x w ( ~ ",
"i f i q p.a 9 u i a 8 q S &.k.F h.K.v.N.H.k.F m.f j.w % 1 * o 0 0.h.1.I.N.a H.0.x w w v a n.3 1 6 4 ",
"9 q * w 0 5 2 = 6 q % 0 c 9 t U ~ i N.k.a N.N.T w w Z.w t F 0 ; U F l.f 0.1.L.K.v.a w 8 T 9 w < ; 8 ",
"v i p f 8 6 w x i q w c m.h J v.1.0.Z.0 0 x -.i V J P.&.N.k.a % g.J i q 0.q n.U h i r f 0.q t.T w B.",
"9 &.U % m.6 f 0.&.i l.q v.<.v.a F m.n.f q S ;.D.-.L.h.<.L.v.u 9 k.1.1.J i 0 * w 1.&.U D.&.&.v H.&.b.",
"0 @ 6 0 1.~ 4.f 9 K., 9 i v 0.0 f a J v.v.f , 0 ^ F % 6 -.~ v.0.q 9 m.N.h.2 o U q v 0.9 -.b D i ;.v.",
"f O 3 x 9 u p 1 0 < - 8 < 8 w i q J T q l.0 w : q x 6 0 w 9 f 0 3 3 t a.1.0 w F 6 3 2 w 9 0 * 1 3 9 ",
"u 6 U 3 < 8 0 q q 2 c T q f 0.&.i C.w < t S h V w P.S T F h - t f w q -.i 1.N.9 i z F T 6 T w < w % ",
"~ &.9 U 6 w 0.&.9 a.F n.i S 0.a n.m.f 7 w D.<.a n.H.-.K.t.i 1 J v a q q 2 9 f a i f v.( h p m.0 C.f ",
"1 z 0 p.i F 0.i ^ h J ~ ! v.q 0 t.4.h.i T i i u f 0 i n.4.&.t.0.4.;.i h 3 3 i u v v.&.! ( &.1.0.v.0.",
"; 9 q ( 0.( 8 2 0 3 1 2 & 0 0 0 9 f v j.2 1 * w & 3 s f q k.N.q 0 2 0 i 8 X 4 2 1 0 * & 1 q q i S U ",
"i < o z 0 2 2 w 9 w 2 2 3 8 i 6 ; w 0 f 3 0 0 2 F p a 0 c F n.i q w 3 q 6 * 7 w < 2 @ = 0 9 i * w t.",
"v < w 6 0.6 2 w i i 6 < w 4.i q F N.i 9 U 0.8 7 S v.-.f S a ( ;.&.w 0.v 3 0 0 9 J < 7 2 0.( f q S &.",
"b p.f w &.^ p w ^ p.5 0 w ^ ( h.0.-.&.4.S b f h i +.4.<.3 ; 2 % , 6 -.h.S S 0 6 v.6 6 w ~ ( &.i 3 q ",
"3 < 1 9 6 < 9 < q 6 5 9 3 q q 5 0 i v a w &.n.v j.S < 6 x 1 9 % o 0 v q u 1 f i u ^ f 0 i 6 < 0 3 i ",
"& - c 2 6 3 1 6 8 % & 1 9 i 1 0 0 9 3 - f w q l.~ q * w F f 4 3 0 0 i * - 3 3 2 1 * 0 p u < 2 f v ( ",
"- F f S 2 p f i < 2 * 0 a i 6 m.S v w d.p 6 q 0.( i p F i 1.9 w J v v 1 U 2 J q 6 8 q ( ~ q p 6 u i ",
"4.z i 1.u F f i q , 0 b v &.( J &.p.4.J f q 9 S f ( G 0 i i 1.w h ~ ! &.w i &.p.f 2 2 i 4 1.* @ * + ",
"9 9 S 6 i f i v i q i 9 9 q 2 9 i i i S &.( h S * 6 0 * 1 * < 3 9 2 2 0 % i v 0 a 6 ; - * 8 1 $ 1 o ",
"= 2 & - 1 < 9 6 9 w % 3 8 * 0 p u 6 t p * w a w 2 9 T 6 8 3 6 * 3 6 8 2 0 5 w % w q 0 8 U 1 w * 4 1 ",
"; 9 . 9 8 < 8 f 9 6 3 f C 6 0 4.( i U 2 @ 8 9 q q w n.i S f 9   0 0 9 6 t.v 6 w U q f f S 9 0.x 2 y "
};
