/* XPM */
static char *b870acf4c5844268c2a5121317086596oEvAGTYGWo40BLOA[] = {
/* columns rows colors chars-per-pixel */
"50 50 48 1 ",
"  c #362232",
". c #3A2333",
"X c #3E2639",
"o c #3F283A",
"O c #402632",
"+ c #452932",
"@ c #4C2C32",
"# c #41273B",
"$ c #43283B",
"% c #4B2C3B",
"& c #512F33",
"* c #532F3C",
"= c #553132",
"- c #5C3533",
"; c #54303B",
": c #5D343A",
"> c #613733",
", c #673B32",
"< c #643935",
"1 c #663935",
"2 c #693B32",
"3 c #6C3B32",
"4 c #6B3C32",
"5 c #6C3C33",
"6 c #693B34",
"7 c #6C3B35",
"8 c #6A3C34",
"9 c #6D3D35",
"0 c #60363A",
"q c #6A3B38",
"w c #713E33",
"e c #713F34",
"r c #764033",
"t c #734135",
"y c #734037",
"u c #754035",
"i c #7B4335",
"p c #7B4336",
"a c #7C4434",
"s c #7E4537",
"d c #754138",
"f c #7B4239",
"g c #794539",
"h c #7D4639",
"j c #814635",
"k c #814835",
"l c #814738",
"z c #814838",
/* pixels */
" =jjjjlzl:# -ljjjjjjjjjjjjjjjjjjjjjf%oXyjjjjjjjjjj",
" &uuuu11h:# =ijsuuijiruuuuuuuijiursd%o.8uussuuuusj",
" @1,,>O+h:#.&3gu,,9h5,,,>>>>,9j9,,ud%X.-,,if,,,,uj",
" @1,-O=,l:# @252,,252,,=OOOO-ek5,,uf%o.>,,44,,,,uj",
" +==@ @-1;# +==========+    @-1-==>>$o &========>6",
"         ##           .        .   .$o            ",
"oooooooo##$#ooooooooo##o#ooo##oooo##$##oooooo#ooo#",
"#%;**;;;;**;;;;;;;;;;*$$#*;*%%;;;;;*;;;;;;;;;;;;;*",
" =sssssssssssssshssssy$XOdhf+@hhhsssshhsssssssssss",
" &wwewwwwijjjjueewwwsd%X.6e9O+5wwwwweeewwwssewwwij",
" @,,,,,,,usssi7,,,,,ud%o.>,>++->,,,,,,,,,,uu,,,,uj",
" @,,,,,,,,2222,,,,,,uu%X.>,,>=.-,,,,,,,,,,22,,,,uj",
" @,,,,,,,,,,,,euy2,,iu%X.>,,,-@@=,,,,5e2,,,,,,,,uj",
" @,,,,,,2,,,,2iss5,,id%X.>,,,,>++,,,,us4,,,,,2,,uj",
" @,,,,,4i5,,,,244,,,id%X.>,,,=.=>,,,,us4,,,,,ui,uj",
" @,,,,,4u5,e4,,,,,,,id$X.>,,,-@-,,,,,us4,,,,,ey,uj",
" @,,,,2,,,4sy,,,,,,,id$X.>,,,,,,,,,,,ys4,,,,,,,,uj",
" @,,,,uu,yi52,,=+-,,id%..>,,,,,,4s9,,25,,,,,,,,,uj",
" @9,,,uu,us2,,-&+-,,id%X.14,,,,4ei5,,,,,,,,,,,,,uj",
" =h4,,,,,us2,>O@,,,,iu%XOuu,,,,ii2,,,,,,,,,,,,,,uj",
" =j5,,,4uy5,,,-&+-,,id%X.65,,,,is2,2u92ue,,,,,,,uj",
" &y>--->e,-----@ =--8q%o.=-----99-->e1-96-------2e",
"  .     .           .X$X       ..   .. ..       ..",
"XXoooXXoooXXoooXoooXXo$#XooXooXooXooXooooooooooooX",
"#%%%%%%%%%%%%%%%%$$#%%%%%%%%%%%$$%%%%%%%%%%%%%%%%%",
" =fiiiiiiiiiiisid*#.1fiiiiiiiid;#.>fiiiiiiiiiiiiii",
" &uuuuuuusjjsrrih*o -ijiuuuuuis;# -uuuussuuuuuuusj",
" @,,,,,,,ujsy,,wh;o =4se,,,,,5s;# =,,,2gu,,,,,,,uj",
" @,,,,,,,us52,,eh;o =24ri2,,,9s;# =,,,,4ys4,,,,,uj",
" @,5992,,eu,,,,es;o =,,wr2,,5us;# =,,,,,5u4,,,,,uj",
" @2ijs5,,,,,,,,es;o =,,,,,,2ijj;# =,,,,,,,,,,,,,uj",
" @,5552,,,,,,,,es;o =,,,,,9iwus;# =,,,2ue,,,,,,,uj",
" @,,,,,,,,,52,,es;o =,,,,5yi25s;# =,,,2uu554,,,,uj",
" @,,,,,,,,2sy,,es;o =,,,2gu,,9s;# =,,,,,ejji,,,,uj",
" @,,,,&&,euw4,yss;o =2,,,w5,,9s;# =,,,,,4ee5,,,,uj",
" @,,,-++,9y2,2sjs;o =,,,,>--,9j;o =,,>>,,,,,,,,,uj",
" @,,=.=,,@+>,2sjs;o =,,,>O..-ej;o =,,&O>,,,,,,,,uj",
" O@@+ +&@O.@@@---%# +@@@@   +=-%# +@@O @@@@@@@@@=-",
"  .  .           ##  .     .  .## ..           .  ",
"###############o#$$############$$#################",
"o%:::::::::::::::::::::%$o%::::::::;#%::::::::::::",
" -jjjjjjjjjjjjjjjjjjjsj0#.=hlsjjjsseO-lljjjjjjjjjj",
" @4455555555555ujji55wh:# @5555555=+->5555555555uj",
" @,,,,,,,,,,,,,5iiu,,5h0#.@,,,,,>-@+>,,,25,,,,,,uj",
" @,,,,,,,,,,,,,,,,,,,5s0# @,,,,,-.=,,,,,es5,,,,,uj",
" @,,,,,-+-,,,,,,,,,,,4j0# @,,,,,>=>,,,,,2euui5,,uj",
" @,->,,- @-,,,444,,,,4j:# @1,,,,,,,,,,,,,,uss5,,uj",
" @,O+,,-  O>,2sjj5,,,5j0# @1,,,,,,,,,,,,,,,,2,,,uk",
" O@..@@+   +@@=--@@@@@=%# O@@@@@@@@@@@@@@@@@@@@@=-",
"                       X#                         "
};
