/* XPM */
static char *_4d4a10a393545b4b0819125d241df46IuS2YmMSjI7SmF1h[] = {
/* columns rows colors chars-per-pixel */
"50 50 191 2 ",
"   c #484A57",
".  c #065120",
"X  c #055E28",
"o  c #055723",
"O  c #0A6E2F",
"+  c #055A25",
"@  c #076B2F",
"#  c #0A7432",
"$  c #067336",
"%  c #1B1918",
"&  c #066D31",
"*  c #096027",
"=  c #1D1D1D",
"-  c #494B59",
";  c #097130",
":  c #474955",
">  c #04662F",
",  c #076F33",
"<  c #065D26",
"1  c #0B7734",
"2  c #2D2F33",
"3  c #077C3A",
"4  c #06793A",
"5  c #097E3B",
"6  c #0A6B2D",
"7  c #065521",
"8  c #077636",
"9  c #057538",
"0  c #06632A",
"q  c #07652C",
"w  c #0B7A36",
"e  c #047036",
"r  c #07682E",
"t  c #202120",
"y  c #077133",
"u  c #046E34",
"i  c #05612A",
"p  c #0B682B",
"a  c #04642D",
"s  c #09662A",
"d  c #28292B",
"f  c #0A5A23",
"g  c #454753",
"h  c #046931",
"j  c #05672C",
"k  c #2F3237",
"l  c #171616",
"z  c #087936",
"x  c #0A6328",
"c  c #FED89C",
"v  c #1F1C19",
"b  c #2B2C2E",
"n  c #242628",
"m  c #054C1D",
"M  c #09813C",
"N  c #FFDA9E",
"B  c #1A1C1A",
"V  c #046B33",
"C  c #34373F",
"Z  c #0A7133",
"A  c #212224",
"S  c #31353C",
"D  c #0C7130",
"F  c #0D7C38",
"G  c #054519",
"H  c #067739",
"J  c #1D2B24",
"K  c #27231D",
"L  c #0E7F3A",
"P  c #40424B",
"I  c #0D843D",
"U  c #282724",
"Y  c #463D33",
"T  c #434551",
"R  c #4B4D5A",
"E  c #332B26",
"W  c #1F2622",
"Q  c gray20",
"!  c #373A44",
"~  c #403F3F",
"^  c #564B3C",
"/  c #2E483F",
"(  c #263C34",
")  c #766750",
"_  c #4E505B",
"`  c #66646F",
"'  c #3B3E45",
"]  c #277A4C",
"[  c #0F7338",
"{  c #8D9CAB",
"}  c #281B16",
"|  c #565863",
" . c #58565C",
".. c #DDBE8C",
"X. c #515354",
"o. c #39564F",
"O. c #363639",
"+. c #5B5A65",
"@. c #6B5C48",
"#. c #E3C38F",
"$. c #146333",
"%. c #BFA47A",
"&. c #212F2A",
"*. c #3C3E49",
"=. c #3C352B",
"-. c #60606A",
";. c #196E3C",
":. c #3A6050",
">. c #39845C",
",. c #396F52",
"<. c #6B7980",
"1. c #5C676F",
"2. c #3A1F18",
"3. c #8A785D",
"4. c #30221C",
"5. c #CAAE82",
"6. c #A18B6A",
"7. c #EECC94",
"8. c #205838",
"9. c #427F5F",
"0. c #53535E",
"q. c #393A3E",
"w. c #9DA7B3",
"e. c #1B211E",
"r. c #266843",
"t. c #2F5A45",
"y. c #243331",
"u. c #347E54",
"i. c #8698A4",
"p. c #A2A4A5",
"a. c #D4B787",
"s. c #84919F",
"d. c #988364",
"f. c #646360",
"g. c #4E433B",
"h. c #053C14",
"j. c #1B3627",
"k. c #737176",
"l. c #6A6B74",
"z. c #0C6832",
"x. c #0C6F36",
"c. c #416C57",
"v. c #604226",
"b. c #43301F",
"n. c #522525",
"m. c #4F4E4B",
"M. c #303D45",
"N. c #BBBBBC",
"B. c #627592",
"V. c #46454C",
"C. c #113F23",
"Z. c #0F5126",
"A. c #324E45",
"S. c #495155",
"D. c #2C433A",
"F. c #753331",
"G. c #919396",
"H. c #F9D499",
"J. c #605049",
"K. c #7C868F",
"L. c #B4BBC3",
"P. c #3A4457",
"I. c #475A79",
"U. c #474952",
"Y. c #49494F",
"T. c #217243",
"R. c #7A7978",
"E. c #178042",
"W. c #364B47",
"Q. c #2E6D4A",
"!. c #43735F",
"~. c #79522C",
"^. c #AE8D76",
"/. c #5C352C",
"(. c #AD6766",
"). c #6C6A67",
"_. c #2C3950",
"`. c #128E47",
"'. c #4C856F",
"]. c #D7D6D4",
"[. c #8C7D7A",
"{. c #785755",
"}. c #8B605D",
"|. c #9A3C3B",
" X c #CECDCA",
".X c #B59B73",
"XX c #CF938F",
"oX c #6E4343",
"OX c #C89F9D",
"+X c #666969",
"@X c #B39C75",
/* pixels */
", , D w 5 x O z e r w Z 4 $ 8 , @ 3 5 , @ y $ V h 9 $ 9 M 4 & D F 9 e u 3 3 $ 4 4 , D 5 H , Z 5 z I ",
"V $ 5 y 9 , 8 y > u > & V V $ < j y e $ [ $.C.J J C.Z.0 4 u e 3 8 $ V h $ > V h a V $ h V V $ H 3 M ",
"6 h h + , H $ o x 0 X . . 7 x < j . C.J q.S.+.` l.-.P J z.q , z y 0 < o 0 o G G o + 7 . m o + q h X ",
"1 & q f D ; , 7 p @ & < o f D y @ B l = A b q.T - 0.-. .&.8.F x.4 , 6 O & q h.7 7 f . 7 7 p r @ + . ",
"$ $ e w 1 V H y Z $ 5 u a O 8 H V e.% = = = = = b *.  _ U.n :.c.t.8.8.;.9 O 0 # . 1 q X 0 O 4 8 q 1 ",
"h r i # O > @ w y O a > r r $.j.W 2 P X. . .X.Y.' 2 C :   C A d O.~ P O.J ( ;.Z @ 9 9 y p j u > , 6 ",
"> 6 p O # i * # r r + + f j.d Y.` ` +.0._ R R - : g g     : T T g - | ` ` O.J 8.r a a r p i a G * 1 ",
"8 , w @ 4 $ y ; 9 8 r 8.J ~ -.| _ R -     :       -         - - g *.P g | ` O.( x.6 f m # e @ * O 8 ",
"y > s h h V 8 & & V r.W V.0.R - - -                               T S A b U. .n >.L O p # 8 9 & o 0 ",
"o + p G . 7 < j < 8.W O.g T V.R -.+._                               : P d = b W 9.I L O r D a r < o ",
"a 6 p . o O r h z.j.= d A 2  .` 0.-         :                       - - g k % e.9.L z 1 # L O # # o ",
", x O Z i 1 $ x.t.e.l % q.` | R         : T *.g   : : g T P P :   -     - : k t 9.L M 3 H I 5 5 I + ",
"7 D e 4 4 8 q T.j.W.B O.l.|         : T ! S ! T P ! S 2 d A n C g     :   - U.Q ( E.$ e $ 8 z 5 5 8 ",
"* q @ O u j * ] ;.:.b ` +.        : *.S 2 k C S k d = B B l l t C g : P g   R _ n 9.[ h s 6 a $ Z w ",
"* X x O q < 6 4 ] J X.-.-       g ! k 2 k k k d t A ~ k.R.f.Q = n ! g ! ' : - _ q.D.L 9 $ 5 y Z # 1 ",
"> @ ; F 4 & ; a :.b ` _ :     : ! S 2 2 S 2 = l O.R.p. X].].p. .= 2 P C C g R |  .W r.z.9 8 # F 5 M ",
"e h 3 4 e 3 @ G y.V.| - :   : *.S 2 d k b = = = d ~ f.[.p.N.N.G.U A C S S P R k.l.n :.* a @ 7 1 3 3 ",
"i * x . + 0 o m e.| R :     T C k n b d = ~ k.R.).m.Q t = t b ~ d B k k 2 ' - k.k.Q c.F @ q s O r f ",
"* O . o p x o $.e. .! g - : ' S 2 = A % d X.m.m.~ b t B % % v v v % b 2 d ! - l.+.q.o.4 9 @ w Z @ f ",
"# $ 0 D w L x T.W *.2 g   : S k A l l l v E =.Y ^ @.) 3.3.3.3.) J.K A n n C - -.Q Q A.$ 3 3 4 Z w 1 ",
"5 4 w I M M F ] W t 2 :   P k d % % = K ^ 6.%.5.a.a.#.#.5.3.^ =.E v B % t C - -.2 v / [ * # j X # 3 ",
"H $ F z & 1 I ] B l Q :   ' k n v ^ ) ^ E Y ..N c c N ..Y =.@.d.d.^ % l = C - +.2 % / [ 0 1 D 7 D 0 ",
"9 z 6 1 r ; L ] e.% 2 : : ! k = K J.) @X5.d.7.c c c c 7.d.5.%.d.@.Y K =.t C - +.d = / H $ , I D L # ",
"+ Z i 5 F z M T.( W.b g : C 2 = ~ P.M.k Y 6.H.c c c c H.6.Y k M.P.~ Y ^ t ! R +.U W./ V e 4 3 M M 5 ",
"j i 0 L M $ 6 ;.;.,.n g - C b b { I._.I.K.Y #.N c c N #.Y K.B._.I.{ Q =.t *.R 0.t ,.o.Z.* r & h # F ",
"H X x 6 w a * D 1 Z e.P   C d X.{ L.b P.{ g.%.c c c c %.~ w.L.2 _.s. .K = T - V.J $.u.f # , & + ; L ",
"$ $ L O H 9 Z # M 5 &.2 g C n f.{ 1.O.- w.m.%.c c c c %.m.w.I.C P.{ f.v A : g 2 :.X x p 3 5 # & D $ ",
". , 1 ; r Z w 1 # $ r.t P ' t ~ L.B.{ B.N.Y a.N c c c a.Y N.B.w.B.L.~ % d : ' W >.H O # 8 , e # x @ ",
"< D 1 1 f x 6 & r 0 s j.b ' t = ).G.s.p.f.@.7.N c c N 7.@.f.p.s.G.).=.U 2 P n A.x., # ; & + X # @ u ",
"z 8 3 4 y # , 4 8 i w [ J k t E g.g.Y ^ ) #.c c H.H.c c #.) ^ Y ^ ) ) t k d &.] 6 s 6 3 u @ D @ e e ",
"@ , V h 3 $ > > & , 0 z.Q.W B % =.6...#.7.c N c ....c N c 7.#...%.@.U % t J >.I # O O y 8 5 x o X + ",
"a q 7 6 s X + . X r m s F t.= &.A.U =.@.d.%.5.a.......a.%.^.) g.U ( o.B J >.`.I M # p s w r 6 7 7 x ",
"e u & O 0 < 6 # @ > 6 1 M [ t./ ] &.l % v 4.K K K K K E 4.v % l J u.!.y.u.x.5 w # @ p # w @ w w 6 F ",
"a $ # . F a Z 5 9 y w & 5 3 E.:.( 2 b l } F.F.J.2.g./.[.oXv l b d o.!.] 8 * . O 3 H w M 3 8 9 I 3 I ",
"0 m < r 4 $ z O > 5 o i & y L :.b <.n B % 4.}.^.|.OX(.{.E % l n 1.d 9.`.3 + G # @ y z h z $ $ u 4 M ",
"@ G f D a h @ + x o 7 x o p T.J 1.<.A X.d l K Y n.J.E v 2.n.l = <.S.y.E.5 r 6 ; X * * p s p 7 o X a ",
"h X ; * 7 x p > q < # w j Z t.Y.w.1.n <.l.k l l t Q ~ % n.F.} % 1.w.Q 9.$ 4 M r & D # 1 x 1 6 + s m ",
"e $ s # i 6 w 9 > 1 1 M , [ e.X.L. .C s.i.K.' l A +XG.Q n.|.n.%  .p.Q ( $.j y $ e # 5 H , Z M @ L ; ",
"f O p 4 , # z u e y 8 $ 9 ,.t K b t S.i.{ i._ S y.A O.b g.XX{.% B U E t ,.< a > e 3 H u e H 3 3 5 5 ",
"7 i a 8 4 $ 0 + 0 < + + m W ) 6.@.t 1.i.{ i._ M.M.2 n % E (.}.= % ) ^.@.&.C.o < + 0 m m 7 q & u # w ",
"h 7 G O 6 < + p 0 s + < 7 K 5...6.U <.{ { s.S.S X.X.M.B E (.F.l B 3.#.6.W Z.x s o o G m x q @ 7 6 F ",
"u < s s z i + O , & X o q J 3.7..XU K.{ i.1.q.W.o.o.o.= } /.2.= v ) 5.Y / z.s q # o + < z 9 , r ; H ",
", H , r H e & r 9 H X 0 O Q.U ^ ^ t <.s.<.A = o.'.'.o.= l % 2 | = U E ( ] 1 p a 4 a i p y 9 9 & * r ",
"f 7 f i i + * o q X + i f z./ v % % = U A v % y.W.W.b U b U = = e./ ,.;.> + 6 V h e O j h X o x * h ",
"G 7 D < + f f < * G G o i h r.y.W ( B b.v.~.b.v d n } b.b./.b.e.r.z.x.. 7 f < + o 7 q & r 7 + O e 9 ",
"7 ; # # X 6 D @ + o . q $ & q F $ x.D.4.v.~.v.K c.c.K v.~.v.4.D.[ 8 u + D x # > X * j 9 e > r X > h ",
"8 Z & 4 V # y u > o s Z e 9 $ z 4 M !.v } 4.} = >.>.B } 4.} v c.[ u e 9 6 & 4 5 ; < + > X 9 7 G . G ",
"a i , i h & V u V r @ 0 0 > X 0 h x.u.t 2.2.} ( f $.( } 2.2.= Q.q + X 0 . r $ r y X 7 . . * o G . h.",
"m o m . o 7 * i 0 r m * x . * & h 0 [ / e.v &.,.< q u.&.v t D.Z.f * * < s i q . r @ s x D < 6 . o f ",
"7 < h.< * . * O a X f D # X q H 9 , 1 $.t.,.;.z.r @ I T.>.u.$.h.* s X i w , X p 1 r D D 1 q w Z < D "
};
