/* XPM */
static char *_527171666254f3ae73f59764a96d9a6Di59cNNL8HLreNjv[] = {
/* columns rows colors chars-per-pixel */
"50 50 237 2 ",
"   c #0B1D14",
".  c #15151A",
"X  c #1A1519",
"o  c #1C1C1D",
"O  c #161716",
"+  c #1C110B",
"@  c #251A0C",
"#  c #231D1C",
"$  c #271B19",
"%  c #321D1C",
"&  c #0C2C1A",
"*  c #0B2515",
"=  c #1B2215",
"-  c #13231B",
";  c #132B1C",
":  c #192718",
">  c #0B321B",
",  c #13331E",
"<  c #1A3518",
"1  c #0A2F0D",
"2  c #24241C",
"3  c #2B291D",
"4  c #282519",
"5  c #352718",
"6  c #37341A",
"7  c #2C2810",
"8  c #1D1D21",
"9  c #151F21",
"0  c #211F24",
"q  c #1C2323",
"w  c #1B2C23",
"e  c #192826",
"r  c #0D3B21",
"t  c #0D3624",
"y  c #143323",
"u  c #1B3225",
"i  c #183A28",
"p  c #0F2F22",
"a  c #232424",
"s  c #232529",
"d  c #2A252A",
"f  c #242B2B",
"g  c #2B2A2D",
"h  c #292822",
"j  c #362B28",
"k  c #233329",
"l  c #36372C",
"z  c #2D2D33",
"x  c #2C2D37",
"c  c #302E35",
"v  c #322C39",
"b  c #243531",
"n  c #2C3235",
"m  c #2D323A",
"M  c #2F3A39",
"N  c #323235",
"B  c #3C3A36",
"V  c #32333B",
"C  c #39343D",
"Z  c #353B3C",
"A  c #3C3A3D",
"S  c #393636",
"D  c #4A3F1F",
"F  c #443A38",
"G  c #513A32",
"H  c #014415",
"J  c #004C16",
"K  c #014E1A",
"L  c #06471B",
"P  c #00541C",
"I  c #005B1D",
"U  c #005216",
"Y  c #00420D",
"T  c #00621E",
"R  c #094C2A",
"E  c #15472A",
"W  c #025523",
"Q  c #025C24",
"!  c #0B5B26",
"~  c #0B542B",
"^  c #045E2A",
"/  c #0C5D2B",
"(  c #0A5427",
")  c #13552C",
"_  c #195D2F",
"`  c #1A4732",
"'  c #0D5933",
"]  c #145533",
"[  c #135D32",
"{  c #1B5A37",
"}  c #3D422D",
"|  c #24512E",
" . c #2B443A",
".. c #264835",
"X. c #3A413B",
"o. c #2B5C3E",
"O. c #235839",
"+. c #2D4D30",
"@. c #016325",
"#. c #006A26",
"$. c #04642A",
"%. c #0A642D",
"&. c #036A2D",
"*. c #0A6B2E",
"=. c #0B6627",
"-. c #11672B",
";. c #03722E",
":. c #0B712E",
">. c #077A2D",
",. c #0C6632",
"<. c #056C32",
"1. c #0B6C33",
"2. c #0C6D3A",
"3. c #066430",
"4. c #116432",
"5. c #126C35",
"6. c #13633A",
"7. c #1B633B",
"8. c #136D3A",
"9. c #1B6A3B",
"0. c #1A6235",
"q. c #047233",
"w. c #0C7334",
"e. c #0A7935",
"r. c #0C743A",
"t. c #0C7B3B",
"y. c #067739",
"u. c #127335",
"i. c #13753B",
"p. c #19743C",
"a. c #127B3C",
"s. c #16793A",
"d. c #22643D",
"f. c #21693D",
"g. c #286239",
"h. c #32633E",
"j. c #454337",
"k. c #544536",
"l. c #594D2D",
"z. c #71653F",
"x. c #333541",
"c. c #353A42",
"v. c #3A3B44",
"b. c #3E3F4A",
"n. c #393341",
"m. c #423E4C",
"M. c #433F50",
"N. c #3D424B",
"B. c #3C4844",
"V. c #265E43",
"C. c #325D44",
"Z. c #365744",
"A. c #3F4553",
"S. c #1D6A42",
"D. c #0E7A41",
"F. c #147342",
"G. c #1C7344",
"H. c #157C41",
"J. c #1B7946",
"K. c #2C6443",
"L. c #276B46",
"P. c #336C4C",
"I. c #386747",
"U. c #257246",
"Y. c #28774A",
"T. c #33734B",
"R. c #3B6D51",
"E. c #357354",
"W. c #3B7354",
"Q. c #377B54",
"!. c #2B7550",
"~. c #444344",
"^. c #43444D",
"/. c #494946",
"(. c #455748",
"). c #58544D",
"_. c #444652",
"`. c #4A4655",
"'. c #464A56",
"]. c #4A4A56",
"[. c #464759",
"{. c #454B59",
"}. c #4A4B5A",
"|. c #4A4758",
" X c #534C57",
".X c #495454",
"XX c #495457",
"oX c #525456",
"OX c #555859",
"+X c #514947",
"@X c #695A48",
"#X c #496455",
"$X c #476955",
"%X c #56665C",
"&X c #437351",
"*X c #736756",
"=X c #515862",
"-X c #4C4F60",
";X c #615F63",
":X c #5B6966",
">X c #467D60",
",X c #567665",
"<X c #64646B",
"1X c #636B6C",
"2X c #656469",
"3X c #646C70",
"4X c #687578",
"5X c #737373",
"6X c #777A78",
"7X c #70756C",
"8X c #877956",
"9X c #12813D",
"0X c #0D803F",
"qX c #158543",
"wX c #0C8041",
"eX c #37825A",
"rX c #218757",
"tX c #40865E",
"yX c #458462",
"uX c #748277",
"iX c #888377",
"pX c #998F6C",
"aX c #7A7E87",
"sX c #788687",
"dX c #7B8C93",
"fX c #8B979B",
"gX c #918F8A",
"hX c #A39B90",
"jX c #96A49A",
"kX c #8C9EA3",
"lX c #909BA1",
"zX c #A8A9AA",
"xX c #B4B5B7",
"cX c #B0AA9C",
"vX c #D1BAB2",
"bX c #BCC7BF",
"nX c #D9C8BC",
/* pixels */
"1.r.q.D.y.&.q.i.2.@.s.w.y.y.y.q.;.>.e.q.&.1.i.1.2.F.2.2.J.F.<.r.F.r.<.<.y.t.q.e.r.1.w.y.y.q.q.0Xt.wX",
"1.i.a.y.r.q.r.1.$.i.@.1.<.&.<.@.#.;.w.w.8.8.~ R [ ' R ' 7.6.6.G.6.G.8.$.r.&.&.&.@.1.w.1.&.<.<.w.r.t.",
"%.$.*.Q 2.i.2.Q $.@.%.P P W %.,.<.Q 6.6.K.r y  .#X%X%X%X#XZ.i p ....] / %.W Y J Q ! P P P Q Q $.$.$.",
"w.1.*.Q 5.u.*.I 1.*.5.^ W / f.{ { ] V.` i XX4X4X<X<X<X;X2X1X3X1XB.; E K.7.0.H ! ! ! U Q Q ,.%.%.I Q ",
"w.e.;.e.r.&.:.w.<.t.e.1.^ 7.d.C.i u b u :X3X=XXX=X}.[.}.{.[.}.XX:X,X .> P.7.4.8.Q 5.%.@.Q 1.i.w.*.w.",
"&.&.#.e.q.@.&.a.w.q.$.1.9.] r  .1X2X3X<X=X'.N.A.{.{.{.}.{.}.}.]..X.X:XXXy { U.8.%.p.w.1.&.&.w.&.&.w.",
"<.<.&.&.w.#.&.*.$.1.^ ~ R r (.1XOX].].^.N.c._.}.[.}.}.[._.}.}._.[.}.}.oX%Xw ..O.[ %.$.%.u.@.Q U &.q.",
"2.2.i.*.u.*.w.w.i.8.7.` i :X1X.X^.^.c.c.N._.[.}.].].[.}.}.].[.}.|.|.`. X XoXu C.f.5.Q P ,.*.8.^ 1.e.",
"i.^ 5.%.=.*.1.1.5.7.C.u :X<XoX^.[.].].].].].].].].].].].[.'.'.[.}._.m.n.C ~.X.; >XU.8.1.w.e.2.,.Q $.",
"W %.4.K U Q @.1.~ K.u oX2X X^.}.'.[.].].].].].].].].].].[.'.[.[.[.}.}.M.v 8 .   r tX5.&.q.w.$.1.^ W ",
",.,.%.Q I &.&.,.S.`  .<X X`._.{.'.'.[.[.[.[.{.[.{.[.{.[.}.].}.}.{.{.[.}._.x 9   & K.Y.i.r.9X&.1.i.^ ",
",.,.2.w.&.w.2.9.E.p :XOXM.}.}.[.{.{.{.{.{.{.{.{.{.{.{.}.}.}.}.}.[.}.{.}.}._.n e #XK.tXi.y.t.t.a.i.$.",
"W 8.2.w.w.r./ { .. .=X}.].}.|.}.}.}.}.}.}.}.].].].].}.}.}.}.}.}.[.[.{.{.[.}.N.f ` W.eX5.w.y.t.r.a.w.",
"%.%.&.q.;.&.[ o.& XX'.}.}.].|.}.}.}.}.}.}.].].].].].].].}.}.}.].}._.'.{.{.-X Xc.p >XU.%.$.;.$.q.y.q.",
"%.Q &.e.#.Q f.R.y XX].|._.].}.].].].].].].].].].].].].[.[.[.[.[.].].}.{.[.[.`.].w O.G.r.q.t.&.u.w.e.",
"%.*.w.e.e.,.d.C.b '._.}.}.].].].].[.[.].].].].].].].].[.'.[.'.[.].].[.'.}.}.`.].Z > S.<.y.q.i.i.s.a.",
"5.%.u.w.w.i.{ ..b N.c.'.}.].].].[.}.}.{.}.}.].[.].}.].}.}.{.[.}.].].[.}.}.[.|.^.~.; P.4.^ ,.Q i.i.e.",
"Q %.@.I @.$.) ..k q c._._.].].'.[.}.[.{.}.].{.}.|.].}.|.}.}.}.}.[.}.}.{.[.[.^.z A u R.U.,.%.&.<.&.@.",
"@.*.Q I &.$.~ ..- . v.].^.].].].[.}.}.].}.[.[.].].}.].].}.}.].[.].}.[.[.'.].v.a a ; P.G.i.&.a.w.*.@.",
"e.e.*.w.a.i.4.K.  9 V ^.c.b.^._.^.[.].].].[.[.].].}.].}.}.]._._.}._.b._.[.^.n.d O ; L.8.r.w.t.e.u.u.",
"t.q.u.s.a.H.i.Q.; O g V V x._.{.V v.^.].].^.^.].'.'.].].'.N.v.^.].m.x.v.b.n.v g O : E.H.@.i.@.@.a.e.",
"y.y.i.u.&.t.a.!.C.- n V V x x.x.m m Z ^._.c.c.^.].].].].^.Z V c.A C m V x.V V g O * yXH.$.w.:.T w.&.",
"q.r.1.u.&.q.t.F.O.& w N Z x.x.x.V n V c.v.V m c.^.'._.N.c.m n V c V m m m V m f - i yX8.5.w.9X;.a.e.",
"$.q.Q s.a.e.t.<.S.o.; N c x.x V V V m n V V V m x.v.v.V m m V V V V m m m m n e  .$XeX8.*.u.a.a.a.t.",
"$.&.$.s.9X;.q.<.8.T.* g V V V V V V V m V Z V V m x.V V m V V V V C x V V Z c q I.E.) ( ! *.$.&.w.t.",
"i.@.$.*.e.#.@.q.r.9.r w b V Z c V V x m V m V m V m m m m V V V x Z c V c.N d w E.' ~ W p.&.1.@.w.t.",
"i.,.i.w.u.q.q.r.a.G.P.& w Z Z z g V V n c.V z v.V m V V V m m V V V V V z n : ` Y.$.^ 3.a.r.r.&.<.w.",
"P 5.a.<.@.w.r.q.w.8.7.E & u n n g n Z V N V V x V V V V V n m V x s z Z n ; y W.J.y.r.w.q.q.&.r.<.<.",
"^ w.r.w.Q *.;.q.*.%./ S.] & k : O g N N z x c.V V V V x V V V N s q n k * , yXU.r.&.r.q.q.Q @.i.<.<.",
"i.w.a.e.u.u.q.e.,.*.i.8.U.{ ; X.a O a N V V z V V V V V V V g 8 . q k & E W.!.8.&.@.*.u.;.q.2.,.2.w.",
"&.&.<.1.w.w.*.$.1.1.Q 2.2.U., %X6XN X o a z N V N V V V n f o O   - * R.eXJ.t.t.q.:.-.u.;.t.5.W Q Q ",
"&.&.I 1.&.@.@.I @.&.I <.r.%.K...OXiXl 4 j.2 s z N c j h # O . - ; ..>XL.F.t.qXqXt.:.*.@.a.&.%.Q @.@.",
"q.q.1.2.$.Q *.w.&.&.q.y.D.r.p.P.B.B 6 z.pX6 O . o # @ 5 @ @ O q $XP.S.3.r.q.t.e.e.;.&.w.r.q.t.a.&.e.",
"<.1.2.P p.*.1.s.w.w.r.w.a.i.Y.T.k 2 D pXl.6 B s . # @Xk.G j X k i tXF.r.y.@.I &.w.r.w.a.a.y.y.9Xe.9X",
"%.P / %.p.1.1.w.$.u.Q $.,.9.d.o.w O @Xl.@ j.).g 8 a 0 $ j $ o .X .` eXrX<.$.J u.*.*.i.*.s.*.;.;.w.r.",
"4.J ! 8.@.*.&.@.&.I @.Q ! 0.I., :X/.= @ j F j.a OX5Xo X d /.S M uXu E.G.F.<.4.4.@.@.@.*.@.*.I I &.@.",
"1.@.,.$.Q &.w.@.&.@.y.t.%.f.| (.jXB.h 3 2 B s a jX/.o f s OX.Xa gXuXr !.8.r.H.%.*.*.w.s.@.s.#.@.$.W ",
"&.w.1.1.@.w.w.e.&.a.q.H.5.T.1 uXbXf /.X.2 a a A gXq o a f a OXa zXjX; R.[ ,.5.2.2.*.H.w.w.*.a.&.H.5.",
"@.&.@.qX&.u.w.1.%.w.i.5.f.| < 3 B X a N 6X;X8  X X8 s 6XzXN g # l h 4 < h.( %.%.1.i.r.1.1.i.H.a.s.a.",
"I $.$.e.e.&.1.I %.^ Q ! g.< iXiXj d 1XxXzXoX8 s 0 ~.gX5XN # # $ h 6XgX} h.H U @.Q %.P J ^ $.1.<.w.t.",
"%.I U w.<.@.Q *.^ 4.W ) I.< nXvXF ;XzX1Xn n .Xs f 1XS 0 o m.+Xj 3 hXnX*X| L %.%.Q Q K W $.$.2.Q ;.t.",
"5.P %.$.w.@.@.1.5.5.! ) I.< gXvXj.g z n =XdXfXsXZ 9 q . a F +X+Xl ).cX} I._ ! %.5.^ Q $.r.w.2.&.&.e.",
"u.5.5.*.u.1.1.%.2.i.Q %._ h.< j.a e }.aXfXlXkXkXdXN.q 0 d S A /./.= k i T.9.,.%.5.%.&.&.w.w.&.1.$.&.",
"Q ^ P %.$.Q Q Q %.Q @.@.,.0.R.I.y - M ].OX:X1X4X4X3X~.h + $ S A B k Z.K.[ ^ 4.5.%.*.1.&.&.@.I &.%.<.",
"J Q 5.^ Q $.@.^ %.K K Q Q $.^ 0.I.(.= 4 5 5 = : w = @ @ 7 5 3 2 k i P.~ W Q %.P ! ^ $.5.*.I I *.1.<.",
"Q 5.p.%.Q 1.1.%.W ! Q $.r.<.&.i.U.&X= k.*X*Xj.= %X(.6 @X8X@X3 l #XW.7.4.8.@.5.%.! ! ^ 5.1.%.-./ ,.3.",
"w.i.$.p.w.<.1.r.5.U ,.i.1.r.2.w.u.9.> 2 % 5 2 : #X,X= 2 4 4 = #Xh.9.8.%.w.&.e.i.1.%.%.%.@.1./ H K H ",
"$.$.5.Q 1.1.1.<.1.%.%.@.%.%.@.&.q.1.C.- h 4 = h.` C.y - 2 = ; I.[ Q $.$.I &.w.&.w.Q Q Q P ,.W L ( H ",
"P ! H W ! W $.$.$.%.Q ^ %.I @.1.$.%.Q.> : : , P./ [ P.& & , O.E ! ^ $.Q %.%.$.Q 1.$.%.%.1.@.%.Q U ! ",
"W / H ! / W %.*.$.%.^ 4.5.@.$.w.w.5.U.K.%X%XR.7.,.4.E.>X,X,Xo.1 / %.%.%.5.1.%.$.u.*.u.u.u.*.u.*.Q 5."
};
